<svg width="118" height="81" viewBox="0 0 118 81" fill="none" xmlns="http://www.w3.org/2000/svg">
<g clip-path="url(#clip0_14_40973)">
<path d="M51.625 0H44.25V7.36364H51.625V0Z" fill="black"/>
<path d="M59 0H51.625V7.36364H59V0Z" fill="black"/>
<path d="M66.375 0H59V7.36364H66.375V0Z" fill="black"/>
<path d="M36.875 7.36365H29.5V14.7273H36.875V7.36365Z" fill="black"/>
<path d="M44.25 7.36365H36.875V14.7273H44.25V7.36365Z" fill="black"/>
<path d="M51.625 7.36365H44.25V14.7273H51.625V7.36365Z" fill="white"/>
<path d="M59 7.36365H51.625V14.7273H59V7.36365Z" fill="white"/>
<path d="M66.375 7.36365H59V14.7273H66.375V7.36365Z" fill="white"/>
<path d="M73.75 7.36365H66.375V14.7273H73.75V7.36365Z" fill="black"/>
<path d="M81.125 7.36365H73.75V14.7273H81.125V7.36365Z" fill="black"/>
<path d="M29.5 14.7273H22.125V22.0909H29.5V14.7273Z" fill="black"/>
<path d="M36.875 14.7273H29.5V22.0909H36.875V14.7273Z" fill="white"/>
<path d="M44.25 14.7273H36.875V22.0909H44.25V14.7273Z" fill="white"/>
<path d="M51.625 14.7273H44.25V22.0909H51.625V14.7273Z" fill="white"/>
<path d="M59 14.7273H51.625V22.0909H59V14.7273Z" fill="white"/>
<path d="M66.375 14.7273H59V22.0909H66.375V14.7273Z" fill="white"/>
<path d="M73.75 14.7273H66.375V22.0909H73.75V14.7273Z" fill="white"/>
<path d="M81.125 14.7273H73.75V22.0909H81.125V14.7273Z" fill="#E0E0E0"/>
<path d="M88.5 14.7273H81.125V22.0909H88.5V14.7273Z" fill="black"/>
<path d="M29.5 22.0909H22.125V29.4545H29.5V22.0909Z" fill="black"/>
<path d="M36.875 22.0909H29.5V29.4545H36.875V22.0909Z" fill="#E0E0E0"/>
<path d="M44.25 22.0909H36.875V29.4545H44.25V22.0909Z" fill="white"/>
<path d="M51.625 22.0909H44.25V29.4545H51.625V22.0909Z" fill="white"/>
<path d="M59 22.0909H51.625V29.4545H59V22.0909Z" fill="white"/>
<path d="M66.375 22.0909H59V29.4545H66.375V22.0909Z" fill="white"/>
<path d="M73.75 22.0909H66.375V29.4545H73.75V22.0909Z" fill="#E0E0E0"/>
<path d="M81.125 22.0909H73.75V29.4545H81.125V22.0909Z" fill="black"/>
<path d="M88.5 22.0909H81.125V29.4545H88.5V22.0909Z" fill="black"/>
<path d="M95.875 22.0909H88.5V29.4545H95.875V22.0909Z" fill="black"/>
<path d="M22.125 29.4545H14.75V36.8182H22.125V29.4545Z" fill="black"/>
<path d="M29.5 29.4545H22.125V36.8182H29.5V29.4545Z" fill="black"/>
<path d="M36.875 29.4545H29.5V36.8182H36.875V29.4545Z" fill="black"/>
<path d="M44.25 29.4545H36.875V36.8182H44.25V29.4545Z" fill="#E0E0E0"/>
<path d="M51.625 29.4545H44.25V36.8182H51.625V29.4545Z" fill="white"/>
<path d="M59 29.4545H51.625V36.8182H59V29.4545Z" fill="white"/>
<path d="M66.375 29.4545H59V36.8182H66.375V29.4545Z" fill="#E0E0E0"/>
<path d="M73.75 29.4545H66.375V36.8182H73.75V29.4545Z" fill="black"/>
<path d="M81.125 29.4545H73.75V36.8182H81.125V29.4545Z" fill="white"/>
<path d="M88.5 29.4545H81.125V36.8182H88.5V29.4545Z" fill="white"/>
<path d="M95.875 29.4545H88.5V36.8182H95.875V29.4545Z" fill="white"/>
<path d="M103.25 29.4545H95.875V36.8182H103.25V29.4545Z" fill="black"/>
<path d="M14.75 36.8182H7.375V44.1818H14.75V36.8182Z" fill="black"/>
<path d="M22.125 36.8182H14.75V44.1818H22.125V36.8182Z" fill="white"/>
<path d="M29.5 36.8182H22.125V44.1818H29.5V36.8182Z" fill="white"/>
<path d="M36.875 36.8182H29.5V44.1818H36.875V36.8182Z" fill="white"/>
<path d="M44.25 36.8182H36.875V44.1818H44.25V36.8182Z" fill="black"/>
<path d="M51.625 36.8182H44.25V44.1818H51.625V36.8182Z" fill="white"/>
<path d="M59 36.8182H51.625V44.1818H59V36.8182Z" fill="white"/>
<path d="M66.375 36.8182H59V44.1818H66.375V36.8182Z" fill="black"/>
<path d="M73.75 36.8182H66.375V44.1818H73.75V36.8182Z" fill="white"/>
<path d="M81.125 36.8182H73.75V44.1818H81.125V36.8182Z" fill="white"/>
<path d="M88.5 36.8182H81.125V44.1818H88.5V36.8182Z" fill="white"/>
<path d="M95.875 36.8182H88.5V44.1818H95.875V36.8182Z" fill="white"/>
<path d="M103.25 36.8182H95.875V44.1818H103.25V36.8182Z" fill="white"/>
<path d="M110.625 36.8182H103.25V44.1818H110.625V36.8182Z" fill="black"/>
<path d="M14.75 44.1818H7.375V51.5455H14.75V44.1818Z" fill="black"/>
<path d="M22.125 44.1818H14.75V51.5455H22.125V44.1818Z" fill="white"/>
<path d="M29.5 44.1818H22.125V51.5455H29.5V44.1818Z" fill="white"/>
<path d="M36.875 44.1818H29.5V51.5455H36.875V44.1818Z" fill="white"/>
<path d="M44.25 44.1818H36.875V51.5455H44.25V44.1818Z" fill="white"/>
<path d="M51.625 44.1818H44.25V51.5455H51.625V44.1818Z" fill="white"/>
<path d="M59 44.1818H51.625V51.5455H59V44.1818Z" fill="white"/>
<path d="M66.375 44.1818H59V51.5455H66.375V44.1818Z" fill="black"/>
<path d="M73.75 44.1818H66.375V51.5455H73.75V44.1818Z" fill="white"/>
<path d="M81.125 44.1818H73.75V51.5455H81.125V44.1818Z" fill="white"/>
<path d="M88.5 44.1818H81.125V51.5455H88.5V44.1818Z" fill="white"/>
<path d="M95.875 44.1818H88.5V51.5455H95.875V44.1818Z" fill="white"/>
<path d="M103.25 44.1818H95.875V51.5455H103.25V44.1818Z" fill="white"/>
<path d="M110.625 44.1818H103.25V51.5455H110.625V44.1818Z" fill="black"/>
<path d="M7.375 51.5455H0V58.9091H7.375V51.5455Z" fill="black"/>
<path d="M14.75 51.5455H7.375V58.9091H14.75V51.5455Z" fill="#E0E0E0"/>
<path d="M22.125 51.5455H14.75V58.9091H22.125V51.5455Z" fill="white"/>
<path d="M29.5 51.5455H22.125V58.9091H29.5V51.5455Z" fill="white"/>
<path d="M36.875 51.5455H29.5V58.9091H36.875V51.5455Z" fill="white"/>
<path d="M44.25 51.5455H36.875V58.9091H44.25V51.5455Z" fill="white"/>
<path d="M51.625 51.5455H44.25V58.9091H51.625V51.5455Z" fill="white"/>
<path d="M59 51.5455H51.625V58.9091H59V51.5455Z" fill="white"/>
<path d="M66.375 51.5455H59V58.9091H66.375V51.5455Z" fill="white"/>
<path d="M73.75 51.5455H66.375V58.9091H73.75V51.5455Z" fill="white"/>
<path d="M81.125 51.5455H73.75V58.9091H81.125V51.5455Z" fill="white"/>
<path d="M88.5 51.5455H81.125V58.9091H88.5V51.5455Z" fill="white"/>
<path d="M95.875 51.5455H88.5V58.9091H95.875V51.5455Z" fill="white"/>
<path d="M103.25 51.5455H95.875V58.9091H103.25V51.5455Z" fill="white"/>
<path d="M110.625 51.5455H103.25V58.9091H110.625V51.5455Z" fill="#E0E0E0"/>
<path d="M118 51.5455H110.625V58.9091H118V51.5455Z" fill="black"/>
<path d="M7.375 58.9091H0V66.2728H7.375V58.9091Z" fill="black"/>
<path d="M14.75 58.9091H7.375V66.2728H14.75V58.9091Z" fill="#E0E0E0"/>
<path d="M22.125 58.9091H14.75V66.2728H22.125V58.9091Z" fill="#E0E0E0"/>
<path d="M29.5 58.9091H22.125V66.2728H29.5V58.9091Z" fill="white"/>
<path d="M36.875 58.9091H29.5V66.2728H36.875V58.9091Z" fill="white"/>
<path d="M44.25 58.9091H36.875V66.2728H44.25V58.9091Z" fill="white"/>
<path d="M51.625 58.9091H44.25V66.2728H51.625V58.9091Z" fill="white"/>
<path d="M59 58.9091H51.625V66.2728H59V58.9091Z" fill="white"/>
<path d="M66.375 58.9091H59V66.2728H66.375V58.9091Z" fill="white"/>
<path d="M73.75 58.9091H66.375V66.2728H73.75V58.9091Z" fill="white"/>
<path d="M81.125 58.9091H73.75V66.2728H81.125V58.9091Z" fill="white"/>
<path d="M88.5 58.9091H81.125V66.2728H88.5V58.9091Z" fill="white"/>
<path d="M95.875 58.9091H88.5V66.2728H95.875V58.9091Z" fill="#E0E0E0"/>
<path d="M103.25 58.9091H95.875V66.2728H103.25V58.9091Z" fill="#E0E0E0"/>
<path d="M110.625 58.9091H103.25V66.2728H110.625V58.9091Z" fill="#E0E0E0"/>
<path d="M118 58.9091H110.625V66.2728H118V58.9091Z" fill="black"/>
<path d="M14.75 66.2727H7.375V73.6363H14.75V66.2727Z" fill="black"/>
<path d="M22.125 66.2727H14.75V73.6363H22.125V66.2727Z" fill="black"/>
<path d="M29.5 66.2727H22.125V73.6363H29.5V66.2727Z" fill="#E0E0E0"/>
<path d="M36.875 66.2727H29.5V73.6363H36.875V66.2727Z" fill="#E0E0E0"/>
<path d="M44.25 66.2727H36.875V73.6363H44.25V66.2727Z" fill="#E0E0E0"/>
<path d="M51.625 66.2727H44.25V73.6363H51.625V66.2727Z" fill="#E0E0E0"/>
<path d="M59 66.2727H51.625V73.6363H59V66.2727Z" fill="#E0E0E0"/>
<path d="M66.375 66.2727H59V73.6363H66.375V66.2727Z" fill="#E0E0E0"/>
<path d="M73.75 66.2727H66.375V73.6363H73.75V66.2727Z" fill="#E0E0E0"/>
<path d="M81.125 66.2727H73.75V73.6363H81.125V66.2727Z" fill="#E0E0E0"/>
<path d="M88.5 66.2727H81.125V73.6363H88.5V66.2727Z" fill="#E0E0E0"/>
<path d="M95.875 66.2727H88.5V73.6363H95.875V66.2727Z" fill="black"/>
<path d="M103.25 66.2727H95.875V73.6363H103.25V66.2727Z" fill="black"/>
<path d="M110.625 66.2727H103.25V73.6363H110.625V66.2727Z" fill="black"/>
<path d="M29.5 73.6364H22.125V81H29.5V73.6364Z" fill="black"/>
<path d="M36.875 73.6364H29.5V81H36.875V73.6364Z" fill="black"/>
<path d="M44.25 73.6364H36.875V81H44.25V73.6364Z" fill="black"/>
<path d="M51.625 73.6364H44.25V81H51.625V73.6364Z" fill="black"/>
<path d="M59 73.6364H51.625V81H59V73.6364Z" fill="black"/>
<path d="M66.375 73.6364H59V81H66.375V73.6364Z" fill="black"/>
<path d="M73.75 73.6364H66.375V81H73.75V73.6364Z" fill="black"/>
<path d="M81.125 73.6364H73.75V81H81.125V73.6364Z" fill="black"/>
<path d="M88.5 73.6364H81.125V81H88.5V73.6364Z" fill="black"/>
</g>
<defs>
<clipPath id="clip0_14_40973">
<rect width="118" height="81" fill="white"/>
</clipPath>
</defs>
</svg>
