<svg width="128" height="112" viewBox="0 0 128 112" fill="none" xmlns="http://www.w3.org/2000/svg">
<g clip-path="url(#clip0_14_5)">
<path d="M56 0H48V8H56V0Z" fill="black"/>
<path d="M64 0H56V8H64V0Z" fill="black"/>
<path d="M72 0H64V8H72V0Z" fill="black"/>
<path d="M80 0H72V8H80V0Z" fill="black"/>
<path d="M48 8H40V16H48V8Z" fill="black"/>
<path d="M56 8H48V16H56V8Z" fill="#AED581"/>
<path d="M64 8H56V16H64V8Z" fill="#AED581"/>
<path d="M72 8H64V16H72V8Z" fill="#8BC34A"/>
<path d="M80 8H72V16H80V8Z" fill="#689F38"/>
<path d="M88 8H80V16H88V8Z" fill="black"/>
<path d="M40 16H32V24H40V16Z" fill="black"/>
<path d="M48 16H40V24H48V16Z" fill="#AED581"/>
<path d="M56 16H48V24H56V16Z" fill="#AED581"/>
<path d="M64 16H56V24H64V16Z" fill="#AED581"/>
<path d="M72 16H64V24H72V16Z" fill="#8BC34A"/>
<path d="M80 16H72V24H80V16Z" fill="#689F38"/>
<path d="M88 16H80V24H88V16Z" fill="#689F38"/>
<path d="M96 16H88V24H96V16Z" fill="black"/>
<path d="M32 24H24V32H32V24Z" fill="black"/>
<path d="M40 24H32V32H40V24Z" fill="#AED581"/>
<path d="M48 24H40V32H48V24Z" fill="#AED581"/>
<path d="M56 24H48V32H56V24Z" fill="#AED581"/>
<path d="M64 24H56V32H64V24Z" fill="#8BC34A"/>
<path d="M72 24H64V32H72V24Z" fill="#8BC34A"/>
<path d="M80 24H72V32H80V24Z" fill="#8BC34A"/>
<path d="M88 24H80V32H88V24Z" fill="#689F38"/>
<path d="M96 24H88V32H96V24Z" fill="#689F38"/>
<path d="M104 24H96V32H104V24Z" fill="black"/>
<path d="M32 32H24V40H32V32Z" fill="black"/>
<path d="M40 32H32V40H40V32Z" fill="#AED581"/>
<path d="M48 32H40V40H48V32Z" fill="#AED581"/>
<path d="M56 32H48V40H56V32Z" fill="#8BC34A"/>
<path d="M64 32H56V40H64V32Z" fill="#8BC34A"/>
<path d="M72 32H64V40H72V32Z" fill="#8BC34A"/>
<path d="M80 32H72V40H80V32Z" fill="#8BC34A"/>
<path d="M88 32H80V40H88V32Z" fill="#689F38"/>
<path d="M96 32H88V40H96V32Z" fill="#689F38"/>
<path d="M104 32H96V40H104V32Z" fill="black"/>
<path d="M24 40H16V48H24V40Z" fill="black"/>
<path d="M32 40H24V48H32V40Z" fill="#8BC34A"/>
<path d="M40 40H32V48H40V40Z" fill="#8BC34A"/>
<path d="M48 40H40V48H48V40Z" fill="#8BC34A"/>
<path d="M56 40H48V48H56V40Z" fill="#8BC34A"/>
<path d="M64 40H56V48H64V40Z" fill="#8BC34A"/>
<path d="M72 40H64V48H72V40Z" fill="#8BC34A"/>
<path d="M80 40H72V48H80V40Z" fill="#8BC34A"/>
<path d="M88 40H80V48H88V40Z" fill="#689F38"/>
<path d="M96 40H88V48H96V40Z" fill="#689F38"/>
<path d="M104 40H96V48H104V40Z" fill="#689F38"/>
<path d="M112 40H104V48H112V40Z" fill="black"/>
<path d="M16 48H8V56H16V48Z" fill="black"/>
<path d="M24 48H16V56H24V48Z" fill="#8BC34A"/>
<path d="M32 48H24V56H32V48Z" fill="#8BC34A"/>
<path d="M40 48H32V56H40V48Z" fill="#8BC34A"/>
<path d="M48 48H40V56H48V48Z" fill="#8BC34A"/>
<path d="M56 48H48V56H56V48Z" fill="#8BC34A"/>
<path d="M64 48H56V56H64V48Z" fill="#8BC34A"/>
<path d="M72 48H64V56H72V48Z" fill="#8BC34A"/>
<path d="M80 48H72V56H80V48Z" fill="#8BC34A"/>
<path d="M88 48H80V56H88V48Z" fill="#689F38"/>
<path d="M96 48H88V56H96V48Z" fill="#689F38"/>
<path d="M104 48H96V56H104V48Z" fill="#689F38"/>
<path d="M112 48H104V56H112V48Z" fill="#689F38"/>
<path d="M120 48H112V56H120V48Z" fill="black"/>
<path d="M16 56H8V64H16V56Z" fill="black"/>
<path d="M24 56H16V64H24V56Z" fill="#8BC34A"/>
<path d="M32 56H24V64H32V56Z" fill="#8BC34A"/>
<path d="M40 56H32V64H40V56Z" fill="#8BC34A"/>
<path d="M48 56H40V64H48V56Z" fill="#8BC34A"/>
<path d="M56 56H48V64H56V56Z" fill="#8BC34A"/>
<path d="M64 56H56V64H64V56Z" fill="#8BC34A"/>
<path d="M72 56H64V64H72V56Z" fill="#8BC34A"/>
<path d="M80 56H72V64H80V56Z" fill="#8BC34A"/>
<path d="M88 56H80V64H88V56Z" fill="#689F38"/>
<path d="M96 56H88V64H96V56Z" fill="#689F38"/>
<path d="M104 56H96V64H104V56Z" fill="#689F38"/>
<path d="M112 56H104V64H112V56Z" fill="#689F38"/>
<path d="M120 56H112V64H120V56Z" fill="black"/>
<path d="M8 64H0V72H8V64Z" fill="black"/>
<path d="M16 64H8V72H16V64Z" fill="#689F38"/>
<path d="M24 64H16V72H24V64Z" fill="#8BC34A"/>
<path d="M32 64H24V72H32V64Z" fill="#8BC34A"/>
<path d="M40 64H32V72H40V64Z" fill="#8BC34A"/>
<path d="M48 64H40V72H48V64Z" fill="#689F38"/>
<path d="M56 64H48V72H56V64Z" fill="#8BC34A"/>
<path d="M64 64H56V72H64V64Z" fill="#8BC34A"/>
<path d="M72 64H64V72H72V64Z" fill="#8BC34A"/>
<path d="M80 64H72V72H80V64Z" fill="#8BC34A"/>
<path d="M88 64H80V72H88V64Z" fill="#689F38"/>
<path d="M96 64H88V72H96V64Z" fill="#689F38"/>
<path d="M104 64H96V72H104V64Z" fill="#689F38"/>
<path d="M112 64H104V72H112V64Z" fill="#689F38"/>
<path d="M120 64H112V72H120V64Z" fill="#689F38"/>
<path d="M128 64H120V72H128V64Z" fill="black"/>
<path d="M8 72H0V80H8V72Z" fill="black"/>
<path d="M16 72H8V80H16V72Z" fill="#689F38"/>
<path d="M24 72H16V80H24V72Z" fill="#8BC34A"/>
<path d="M32 72H24V80H32V72Z" fill="#8BC34A"/>
<path d="M40 72H32V80H40V72Z" fill="#689F38"/>
<path d="M48 72H40V80H48V72Z" fill="#689F38"/>
<path d="M56 72H48V80H56V72Z" fill="#8BC34A"/>
<path d="M64 72H56V80H64V72Z" fill="#8BC34A"/>
<path d="M72 72H64V80H72V72Z" fill="#8BC34A"/>
<path d="M80 72H72V80H80V72Z" fill="#8BC34A"/>
<path d="M88 72H80V80H88V72Z" fill="#689F38"/>
<path d="M96 72H88V80H96V72Z" fill="#689F38"/>
<path d="M104 72H96V80H104V72Z" fill="#689F38"/>
<path d="M112 72H104V80H112V72Z" fill="#689F38"/>
<path d="M120 72H112V80H120V72Z" fill="#689F38"/>
<path d="M128 72H120V80H128V72Z" fill="black"/>
<path d="M8 80H0V88H8V80Z" fill="black"/>
<path d="M16 80H8V88H16V80Z" fill="#689F38"/>
<path d="M24 80H16V88H24V80Z" fill="#689F38"/>
<path d="M32 80H24V88H32V80Z" fill="#689F38"/>
<path d="M40 80H32V88H40V80Z" fill="#689F38"/>
<path d="M48 80H40V88H48V80Z" fill="#689F38"/>
<path d="M56 80H48V88H56V80Z" fill="#8BC34A"/>
<path d="M64 80H56V88H64V80Z" fill="#8BC34A"/>
<path d="M72 80H64V88H72V80Z" fill="#8BC34A"/>
<path d="M80 80H72V88H80V80Z" fill="#689F38"/>
<path d="M88 80H80V88H88V80Z" fill="#689F38"/>
<path d="M96 80H88V88H96V80Z" fill="#689F38"/>
<path d="M104 80H96V88H104V80Z" fill="#689F38"/>
<path d="M112 80H104V88H112V80Z" fill="#689F38"/>
<path d="M120 80H112V88H120V80Z" fill="#689F38"/>
<path d="M128 80H120V88H128V80Z" fill="black"/>
<path d="M16 88H8V96H16V88Z" fill="black"/>
<path d="M24 88H16V96H24V88Z" fill="#689F38"/>
<path d="M32 88H24V96H32V88Z" fill="#689F38"/>
<path d="M40 88H32V96H40V88Z" fill="#689F38"/>
<path d="M48 88H40V96H48V88Z" fill="#689F38"/>
<path d="M56 88H48V96H56V88Z" fill="#689F38"/>
<path d="M64 88H56V96H64V88Z" fill="#689F38"/>
<path d="M72 88H64V96H72V88Z" fill="#689F38"/>
<path d="M80 88H72V96H80V88Z" fill="#689F38"/>
<path d="M88 88H80V96H88V88Z" fill="#689F38"/>
<path d="M96 88H88V96H96V88Z" fill="#689F38"/>
<path d="M104 88H96V96H104V88Z" fill="#689F38"/>
<path d="M112 88H104V96H112V88Z" fill="#689F38"/>
<path d="M120 88H112V96H120V88Z" fill="black"/>
<path d="M24 96H16V104H24V96Z" fill="black"/>
<path d="M32 96H24V104H32V96Z" fill="black"/>
<path d="M40 96H32V104H40V96Z" fill="black"/>
<path d="M48 96H40V104H48V96Z" fill="#689F38"/>
<path d="M56 96H48V104H56V96Z" fill="#689F38"/>
<path d="M64 96H56V104H64V96Z" fill="#689F38"/>
<path d="M72 96H64V104H72V96Z" fill="#689F38"/>
<path d="M80 96H72V104H80V96Z" fill="#689F38"/>
<path d="M88 96H80V104H88V96Z" fill="#689F38"/>
<path d="M96 96H88V104H96V96Z" fill="black"/>
<path d="M104 96H96V104H104V96Z" fill="black"/>
<path d="M112 96H104V104H112V96Z" fill="black"/>
<path d="M48 104H40V112H48V104Z" fill="black"/>
<path d="M56 104H48V112H56V104Z" fill="black"/>
<path d="M64 104H56V112H64V104Z" fill="black"/>
<path d="M72 104H64V112H72V104Z" fill="black"/>
<path d="M80 104H72V112H80V104Z" fill="black"/>
<path d="M88 104H80V112H88V104Z" fill="black"/>
</g>
<defs>
<clipPath id="clip0_14_5">
<rect width="128" height="112" fill="white"/>
</clipPath>
</defs>
</svg>
