<svg width="292" height="333" viewBox="0 0 292 333" fill="none" xmlns="http://www.w3.org/2000/svg">
<g clip-path="url(#clip0_12_302093)">
<path d="M-9.09743e-07 270.562L0 249.75L20.8571 249.75L20.8571 270.563L-9.09743e-07 270.562Z" fill="black"/>
<path d="M-9.09743e-07 291.375L0 270.562L20.8571 270.563L20.8571 291.375L-9.09743e-07 291.375Z" fill="black"/>
<path d="M-9.09743e-07 312.188L0 291.375L20.8571 291.375L20.8571 312.188L-9.09743e-07 312.188Z" fill="black"/>
<path d="M20.8569 20.8125L20.8569 0L41.7141 9.11695e-07L41.7141 20.8125L20.8569 20.8125Z" fill="black"/>
<path d="M20.8569 41.625L20.8569 20.8125L41.7141 20.8125L41.7141 41.625L20.8569 41.625Z" fill="black"/>
<path d="M20.8569 62.4375L20.8569 41.625L41.7141 41.625L41.7141 62.4375L20.8569 62.4375Z" fill="black"/>
<path d="M20.8569 83.25L20.8569 62.4375L41.7141 62.4375L41.7141 83.25L20.8569 83.25Z" fill="black"/>
<path d="M20.8569 104.062L20.8569 83.25L41.7141 83.25L41.7141 104.063L20.8569 104.062Z" fill="black"/>
<path d="M20.8569 166.5L20.8569 145.688L41.7141 145.688L41.7141 166.5L20.8569 166.5Z" fill="black"/>
<path d="M20.8569 187.312L20.8569 166.5L41.7141 166.5L41.7141 187.313L20.8569 187.312Z" fill="black"/>
<path d="M20.8569 208.125L20.8569 187.312L41.7141 187.313L41.7141 208.125L20.8569 208.125Z" fill="black"/>
<path d="M20.8569 249.75L20.8569 228.938L41.7141 228.938L41.7141 249.75L20.8569 249.75Z" fill="black"/>
<path d="M20.8569 270.562L20.8569 249.75L41.7141 249.75L41.7141 270.563L20.8569 270.562Z" fill="black"/>
<path d="M20.8569 291.375L20.8569 270.562L41.7141 270.563L41.7141 291.375L20.8569 291.375Z" fill="#C7B8B2"/>
<path d="M20.8569 312.188L20.8569 291.375L41.7141 291.375L41.7141 312.188L20.8569 312.188Z" fill="#A1887F"/>
<path d="M20.8569 333L20.8569 312.188L41.7141 312.188L41.7141 333L20.8569 333Z" fill="black"/>
<path d="M41.7144 20.8125L41.7144 0L62.5715 9.11695e-07L62.5715 20.8125L41.7144 20.8125Z" fill="black"/>
<path d="M41.7144 41.625L41.7144 20.8125L62.5715 20.8125L62.5715 41.625L41.7144 41.625Z" fill="#A1887F"/>
<path d="M41.7144 62.4375L41.7144 41.625L62.5715 41.625L62.5715 62.4375L41.7144 62.4375Z" fill="#A1887F"/>
<path d="M41.7144 83.25L41.7144 62.4375L62.5715 62.4375L62.5715 83.25L41.7144 83.25Z" fill="#A1887F"/>
<path d="M41.7144 104.062L41.7144 83.25L62.5715 83.25L62.5715 104.063L41.7144 104.062Z" fill="#A1887F"/>
<path d="M41.7144 124.875L41.7144 104.062L62.5715 104.063L62.5715 124.875L41.7144 124.875Z" fill="black"/>
<path d="M41.7144 145.688L41.7144 124.875L62.5715 124.875L62.5715 145.688L41.7144 145.688Z" fill="black"/>
<path d="M41.7144 166.5L41.7144 145.688L62.5715 145.688L62.5715 166.5L41.7144 166.5Z" fill="#A1887F"/>
<path d="M41.7144 187.312L41.7144 166.5L62.5715 166.5L62.5715 187.313L41.7144 187.312Z" fill="#A1887F"/>
<path d="M41.7144 208.125L41.7144 187.312L62.5715 187.313L62.5715 208.125L41.7144 208.125Z" fill="#A1887F"/>
<path d="M41.7144 228.938L41.7144 208.125L62.5715 208.125L62.5715 228.938L41.7144 228.938Z" fill="black"/>
<path d="M41.7144 249.75L41.7144 228.938L62.5715 228.938L62.5715 249.75L41.7144 249.75Z" fill="#A1887F"/>
<path d="M41.7144 270.562L41.7144 249.75L62.5715 249.75L62.5715 270.563L41.7144 270.562Z" fill="black"/>
<path d="M41.7144 291.375L41.7144 270.562L62.5715 270.563L62.5715 291.375L41.7144 291.375Z" fill="#C7B8B2"/>
<path d="M41.7144 312.188L41.7144 291.375L62.5715 291.375L62.5715 312.188L41.7144 312.188Z" fill="#A1887F"/>
<path d="M41.7144 333L41.7144 312.188L62.5715 312.188L62.5715 333L41.7144 333Z" fill="black"/>
<path d="M62.5713 20.8125L62.5713 0L83.4284 9.11695e-07L83.4284 20.8125L62.5713 20.8125Z" fill="black"/>
<path d="M62.5713 41.625L62.5713 20.8125L83.4284 20.8125L83.4284 41.625L62.5713 41.625Z" fill="#A1887F"/>
<path d="M62.5713 62.4375L62.5713 41.625L83.4284 41.625L83.4284 62.4375L62.5713 62.4375Z" fill="#C7B8B2"/>
<path d="M62.5713 83.25L62.5713 62.4375L83.4284 62.4375L83.4284 83.25L62.5713 83.25Z" fill="#C7B8B2"/>
<path d="M62.5713 104.062L62.5713 83.25L83.4284 83.25L83.4284 104.063L62.5713 104.062Z" fill="#C7B8B2"/>
<path d="M62.5713 124.875L62.5713 104.062L83.4284 104.063L83.4284 124.875L62.5713 124.875Z" fill="#C7B8B2"/>
<path d="M62.5713 145.688L62.5713 124.875L83.4284 124.875L83.4284 145.688L62.5713 145.688Z" fill="#C7B8B2"/>
<path d="M62.5713 166.5L62.5713 145.688L83.4284 145.688L83.4284 166.5L62.5713 166.5Z" fill="#C7B8B2"/>
<path d="M62.5713 187.312L62.5713 166.5L83.4284 166.5L83.4284 187.313L62.5713 187.312Z" fill="#C7B8B2"/>
<path d="M62.5713 208.125L62.5713 187.312L83.4284 187.313L83.4284 208.125L62.5713 208.125Z" fill="#C7B8B2"/>
<path d="M62.5713 228.938L62.5713 208.125L83.4284 208.125L83.4284 228.938L62.5713 228.938Z" fill="#C7B8B2"/>
<path d="M62.5713 249.75L62.5713 228.938L83.4284 228.938L83.4284 249.75L62.5713 249.75Z" fill="#C7B8B2"/>
<path d="M62.5713 270.562L62.5713 249.75L83.4284 249.75L83.4284 270.563L62.5713 270.562Z" fill="#C7B8B2"/>
<path d="M62.5713 291.375L62.5713 270.562L83.4284 270.563L83.4284 291.375L62.5713 291.375Z" fill="black"/>
<path d="M62.5713 312.188L62.5713 291.375L83.4284 291.375L83.4284 312.188L62.5713 312.188Z" fill="#A1887F"/>
<path d="M62.5713 333L62.5713 312.188L83.4284 312.188L83.4284 333L62.5713 333Z" fill="black"/>
<path d="M83.4287 20.8125L83.4287 0L104.286 9.11695e-07L104.286 20.8125L83.4287 20.8125Z" fill="black"/>
<path d="M83.4287 41.625L83.4287 20.8125L104.286 20.8125L104.286 41.625L83.4287 41.625Z" fill="#A1887F"/>
<path d="M83.4287 62.4375L83.4287 41.625L104.286 41.625L104.286 62.4375L83.4287 62.4375Z" fill="#C7B8B2"/>
<path d="M83.4287 83.25L83.4287 62.4375L104.286 62.4375L104.286 83.25L83.4287 83.25Z" fill="#C7B8B2"/>
<path d="M83.4287 104.062L83.4287 83.25L104.286 83.25L104.286 104.063L83.4287 104.062Z" fill="#C7B8B2"/>
<path d="M83.4287 124.875L83.4287 104.062L104.286 104.063L104.286 124.875L83.4287 124.875Z" fill="#C7B8B2"/>
<path d="M83.4287 145.688L83.4287 124.875L104.286 124.875L104.286 145.688L83.4287 145.688Z" fill="#C7B8B2"/>
<path d="M83.4287 166.5L83.4287 145.688L104.286 145.688L104.286 166.5L83.4287 166.5Z" fill="#C7B8B2"/>
<path d="M83.4287 187.312L83.4287 166.5L104.286 166.5L104.286 187.313L83.4287 187.312Z" fill="#C7B8B2"/>
<path d="M83.4287 208.125L83.4287 187.312L104.286 187.313L104.286 208.125L83.4287 208.125Z" fill="#C7B8B2"/>
<path d="M83.4287 228.938L83.4287 208.125L104.286 208.125L104.286 228.938L83.4287 228.938Z" fill="#C7B8B2"/>
<path d="M83.4287 249.75L83.4287 228.938L104.286 228.938L104.286 249.75L83.4287 249.75Z" fill="#C7B8B2"/>
<path d="M83.4287 270.562L83.4287 249.75L104.286 249.75L104.286 270.563L83.4287 270.562Z" fill="black"/>
<path d="M83.4287 291.375L83.4287 270.562L104.286 270.563L104.286 291.375L83.4287 291.375Z" fill="#C7B8B2"/>
<path d="M83.4287 312.188L83.4287 291.375L104.286 291.375L104.286 312.188L83.4287 312.188Z" fill="#A1887F"/>
<path d="M83.4287 333L83.4287 312.188L104.286 312.188L104.286 333L83.4287 333Z" fill="black"/>
<path d="M104.286 41.625L104.286 20.8125L125.143 20.8125L125.143 41.625L104.286 41.625Z" fill="black"/>
<path d="M104.286 62.4375L104.286 41.625L125.143 41.625L125.143 62.4375L104.286 62.4375Z" fill="#C7B8B2"/>
<path d="M104.286 83.25L104.286 62.4375L125.143 62.4375L125.143 83.25L104.286 83.25Z" fill="#C7B8B2"/>
<path d="M104.286 104.062L104.286 83.25L125.143 83.25L125.143 104.063L104.286 104.062Z" fill="#C7B8B2"/>
<path d="M104.286 124.875L104.286 104.062L125.143 104.063L125.143 124.875L104.286 124.875Z" fill="#C7B8B2"/>
<path d="M104.286 145.688L104.286 124.875L125.143 124.875L125.143 145.688L104.286 145.688Z" fill="#C7B8B2"/>
<path d="M104.286 166.5L104.286 145.688L125.143 145.688L125.143 166.5L104.286 166.5Z" fill="#C7B8B2"/>
<path d="M104.286 187.312L104.286 166.5L125.143 166.5L125.143 187.313L104.286 187.312Z" fill="#C7B8B2"/>
<path d="M104.286 208.125L104.286 187.312L125.143 187.313L125.143 208.125L104.286 208.125Z" fill="#C7B8B2"/>
<path d="M104.286 228.938L104.286 208.125L125.143 208.125L125.143 228.938L104.286 228.938Z" fill="#C7B8B2"/>
<path d="M104.286 249.75L104.286 228.938L125.143 228.938L125.143 249.75L104.286 249.75Z" fill="#C7B8B2"/>
<path d="M104.286 270.562L104.286 249.75L125.143 249.75L125.143 270.563L104.286 270.562Z" fill="black"/>
<path d="M104.286 291.375L104.286 270.562L125.143 270.563L125.143 291.375L104.286 291.375Z" fill="#C7B8B2"/>
<path d="M104.286 312.188L104.286 291.375L125.143 291.375L125.143 312.188L104.286 312.188Z" fill="#A1887F"/>
<path d="M104.286 333L104.286 312.188L125.143 312.188L125.143 333L104.286 333Z" fill="black"/>
<path d="M125.143 20.8125L125.143 0L146 9.11695e-07L146 20.8125L125.143 20.8125Z" fill="black"/>
<path d="M125.143 41.625L125.143 20.8125L146 20.8125L146 41.625L125.143 41.625Z" fill="#A1887F"/>
<path d="M125.143 62.4375L125.143 41.625L146 41.625L146 62.4375L125.143 62.4375Z" fill="#C7B8B2"/>
<path d="M125.143 83.25L125.143 62.4375L146 62.4375L146 83.25L125.143 83.25Z" fill="#C7B8B2"/>
<path d="M125.143 104.062L125.143 83.25L146 83.25L146 104.063L125.143 104.062Z" fill="#C7B8B2"/>
<path d="M125.143 124.875L125.143 104.062L146 104.063L146 124.875L125.143 124.875Z" fill="#C7B8B2"/>
<path d="M125.143 145.688L125.143 124.875L146 124.875L146 145.688L125.143 145.688Z" fill="#C7B8B2"/>
<path d="M125.143 166.5L125.143 145.688L146 145.688L146 166.5L125.143 166.5Z" fill="#C7B8B2"/>
<path d="M125.143 187.312L125.143 166.5L146 166.5L146 187.313L125.143 187.312Z" fill="#C7B8B2"/>
<path d="M125.143 208.125L125.143 187.312L146 187.313L146 208.125L125.143 208.125Z" fill="#C7B8B2"/>
<path d="M125.143 228.938L125.143 208.125L146 208.125L146 228.938L125.143 228.938Z" fill="#C7B8B2"/>
<path d="M125.143 249.75L125.143 228.938L146 228.938L146 249.75L125.143 249.75Z" fill="#C7B8B2"/>
<path d="M125.143 270.562L125.143 249.75L146 249.75L146 270.563L125.143 270.562Z" fill="black"/>
<path d="M125.143 291.375L125.143 270.562L146 270.563L146 291.375L125.143 291.375Z" fill="#C7B8B2"/>
<path d="M125.143 312.188L125.143 291.375L146 291.375L146 312.188L125.143 312.188Z" fill="#A1887F"/>
<path d="M125.143 333L125.143 312.188L146 312.188L146 333L125.143 333Z" fill="black"/>
<path d="M146 20.8125L146 0L166.857 9.11695e-07L166.857 20.8125L146 20.8125Z" fill="black"/>
<path d="M146 41.625L146 20.8125L166.857 20.8125L166.857 41.625L146 41.625Z" fill="#A1887F"/>
<path d="M146 62.4375L146 41.625L166.857 41.625L166.857 62.4375L146 62.4375Z" fill="#C7B8B2"/>
<path d="M146 83.25L146 62.4375L166.857 62.4375L166.857 83.25L146 83.25Z" fill="#C7B8B2"/>
<path d="M146 104.062L146 83.25L166.857 83.25L166.857 104.063L146 104.062Z" fill="#C7B8B2"/>
<path d="M146 124.875L146 104.062L166.857 104.063L166.857 124.875L146 124.875Z" fill="#C7B8B2"/>
<path d="M146 145.688L146 124.875L166.857 124.875L166.857 145.688L146 145.688Z" fill="#C7B8B2"/>
<path d="M146 166.5L146 145.688L166.857 145.688L166.857 166.5L146 166.5Z" fill="#C7B8B2"/>
<path d="M146 187.312L146 166.5L166.857 166.5L166.857 187.313L146 187.312Z" fill="#C7B8B2"/>
<path d="M146 208.125L146 187.312L166.857 187.313L166.857 208.125L146 208.125Z" fill="#C7B8B2"/>
<path d="M146 228.938L146 208.125L166.857 208.125L166.857 228.938L146 228.938Z" fill="#C7B8B2"/>
<path d="M146 249.75L146 228.938L166.857 228.938L166.857 249.75L146 249.75Z" fill="#C7B8B2"/>
<path d="M146 270.562L146 249.75L166.857 249.75L166.857 270.563L146 270.562Z" fill="#C7B8B2"/>
<path d="M146 291.375L146 270.562L166.857 270.563L166.857 291.375L146 291.375Z" fill="black"/>
<path d="M146 312.188L146 291.375L166.857 291.375L166.857 312.188L146 312.188Z" fill="#A1887F"/>
<path d="M146 333L146 312.188L166.857 312.188L166.857 333L146 333Z" fill="black"/>
<path d="M166.857 20.8125L166.857 0L187.714 9.11695e-07L187.714 20.8125L166.857 20.8125Z" fill="black"/>
<path d="M166.857 41.625L166.857 20.8125L187.714 20.8125L187.714 41.625L166.857 41.625Z" fill="#A1887F"/>
<path d="M166.857 62.4375L166.857 41.625L187.714 41.625L187.714 62.4375L166.857 62.4375Z" fill="#C7B8B2"/>
<path d="M166.857 83.25L166.857 62.4375L187.714 62.4375L187.714 83.25L166.857 83.25Z" fill="#C7B8B2"/>
<path d="M166.857 104.062L166.857 83.25L187.714 83.25L187.714 104.063L166.857 104.062Z" fill="#C7B8B2"/>
<path d="M166.857 124.875L166.857 104.062L187.714 104.063L187.714 124.875L166.857 124.875Z" fill="#C7B8B2"/>
<path d="M166.857 145.688L166.857 124.875L187.714 124.875L187.714 145.688L166.857 145.688Z" fill="#C7B8B2"/>
<path d="M166.857 166.5L166.857 145.688L187.714 145.688L187.714 166.5L166.857 166.5Z" fill="#C7B8B2"/>
<path d="M166.857 187.312L166.857 166.5L187.714 166.5L187.714 187.313L166.857 187.312Z" fill="#C7B8B2"/>
<path d="M166.857 208.125L166.857 187.312L187.714 187.313L187.714 208.125L166.857 208.125Z" fill="#C7B8B2"/>
<path d="M166.857 228.938L166.857 208.125L187.714 208.125L187.714 228.938L166.857 228.938Z" fill="#C7B8B2"/>
<path d="M166.857 249.75L166.857 228.938L187.714 228.938L187.714 249.75L166.857 249.75Z" fill="#C7B8B2"/>
<path d="M166.857 270.562L166.857 249.75L187.714 249.75L187.714 270.563L166.857 270.562Z" fill="black"/>
<path d="M166.857 291.375L166.857 270.562L187.714 270.563L187.714 291.375L166.857 291.375Z" fill="#C7B8B2"/>
<path d="M166.857 312.188L166.857 291.375L187.714 291.375L187.714 312.188L166.857 312.188Z" fill="#A1887F"/>
<path d="M166.857 333L166.857 312.188L187.714 312.188L187.714 333L166.857 333Z" fill="black"/>
<path d="M187.714 20.8125L187.714 0L208.571 9.11695e-07L208.571 20.8125L187.714 20.8125Z" fill="black"/>
<path d="M187.714 41.625L187.714 20.8125L208.571 20.8125L208.571 41.625L187.714 41.625Z" fill="#A1887F"/>
<path d="M187.714 62.4375L187.714 41.625L208.571 41.625L208.571 62.4375L187.714 62.4375Z" fill="#C7B8B2"/>
<path d="M187.714 83.25L187.714 62.4375L208.571 62.4375L208.571 83.25L187.714 83.25Z" fill="#C7B8B2"/>
<path d="M187.714 104.062L187.714 83.25L208.571 83.25L208.571 104.063L187.714 104.062Z" fill="#C7B8B2"/>
<path d="M187.714 124.875L187.714 104.062L208.571 104.063L208.571 124.875L187.714 124.875Z" fill="#C7B8B2"/>
<path d="M187.714 145.688L187.714 124.875L208.571 124.875L208.571 145.688L187.714 145.688Z" fill="#C7B8B2"/>
<path d="M187.714 166.5L187.714 145.688L208.571 145.688L208.571 166.5L187.714 166.5Z" fill="#C7B8B2"/>
<path d="M187.714 187.312L187.714 166.5L208.571 166.5L208.571 187.313L187.714 187.312Z" fill="#C7B8B2"/>
<path d="M187.714 208.125L187.714 187.312L208.571 187.313L208.571 208.125L187.714 208.125Z" fill="#C7B8B2"/>
<path d="M187.714 228.938L187.714 208.125L208.571 208.125L208.571 228.938L187.714 228.938Z" fill="#C7B8B2"/>
<path d="M187.714 249.75L187.714 228.938L208.571 228.938L208.571 249.75L187.714 249.75Z" fill="#C7B8B2"/>
<path d="M187.714 270.562L187.714 249.75L208.571 249.75L208.571 270.563L187.714 270.562Z" fill="black"/>
<path d="M187.714 291.375L187.714 270.562L208.571 270.563L208.571 291.375L187.714 291.375Z" fill="#C7B8B2"/>
<path d="M187.714 312.188L187.714 291.375L208.571 291.375L208.571 312.188L187.714 312.188Z" fill="#A1887F"/>
<path d="M187.714 333L187.714 312.188L208.571 312.188L208.571 333L187.714 333Z" fill="black"/>
<path d="M208.571 41.625L208.571 20.8125L229.428 20.8125L229.428 41.625L208.571 41.625Z" fill="black"/>
<path d="M208.571 62.4375L208.571 41.625L229.428 41.625L229.428 62.4375L208.571 62.4375Z" fill="#C7B8B2"/>
<path d="M208.571 83.25L208.571 62.4375L229.428 62.4375L229.428 83.25L208.571 83.25Z" fill="#C7B8B2"/>
<path d="M208.571 104.062L208.571 83.25L229.428 83.25L229.428 104.063L208.571 104.062Z" fill="#C7B8B2"/>
<path d="M208.571 124.875L208.571 104.062L229.428 104.063L229.428 124.875L208.571 124.875Z" fill="#C7B8B2"/>
<path d="M208.571 145.688L208.571 124.875L229.428 124.875L229.428 145.688L208.571 145.688Z" fill="#C7B8B2"/>
<path d="M208.571 166.5L208.571 145.688L229.428 145.688L229.428 166.5L208.571 166.5Z" fill="#C7B8B2"/>
<path d="M208.571 187.312L208.571 166.5L229.428 166.5L229.428 187.313L208.571 187.312Z" fill="#C7B8B2"/>
<path d="M208.571 208.125L208.571 187.312L229.428 187.313L229.428 208.125L208.571 208.125Z" fill="#C7B8B2"/>
<path d="M83.6572 104.328L83.6572 83.5156L104.514 83.5156L104.514 104.328L83.6572 104.328Z" fill="#3E2723"/>
<path d="M83.6572 145.953L83.6572 125.141L104.514 125.141L104.514 145.953L83.6572 145.953Z" fill="#5D4037"/>
<path d="M83.6567 229.203L83.6567 208.391L104.514 208.391L104.514 229.203L83.6567 229.203Z" fill="#3E2723"/>
<path d="M104.514 104.328L104.514 83.5156L125.371 83.5156L125.371 104.328L104.514 104.328Z" fill="#5D4037"/>
<path d="M104.514 145.953L104.514 125.141L125.371 125.141L125.371 145.953L104.514 145.953Z" fill="#3E2723"/>
<path d="M104.514 187.312L104.514 166.5L125.371 166.5L125.371 187.313L104.514 187.312Z" fill="#3E2723"/>
<path d="M104.514 229.203L104.514 208.391L125.371 208.391L125.371 229.203L104.514 229.203Z" fill="#5D4037"/>
<path d="M125.371 104.328L125.371 83.5156L146.228 83.5156L146.228 104.328L125.371 104.328Z" fill="#3E2723"/>
<path d="M125.371 145.953L125.371 125.141L146.228 125.141L146.228 145.953L125.371 145.953Z" fill="#3E2723"/>
<path d="M125.371 229.203L125.371 208.391L146.228 208.391L146.228 229.203L125.371 229.203Z" fill="#3E2723"/>
<path d="M146.229 104.328L146.229 83.5156L167.086 83.5156L167.086 104.328L146.229 104.328Z" fill="#3E2723"/>
<path d="M146.229 145.953L146.229 125.141L167.086 125.141L167.086 145.953L146.229 145.953Z" fill="#5D4037"/>
<path d="M146.229 187.312L146.229 166.5L167.086 166.5L167.086 187.313L146.229 187.312Z" fill="#5D4037"/>
<path d="M167.085 104.328L167.085 83.5156L187.943 83.5156L187.943 104.328L167.085 104.328Z" fill="#3E2723"/>
<path d="M167.085 145.953L167.085 125.141L187.943 125.141L187.943 145.953L167.085 145.953Z" fill="#3E2723"/>
<path d="M167.085 187.312L167.085 166.5L187.943 166.5L187.943 187.313L167.085 187.312Z" fill="#3E2723"/>
<path d="M167.085 229.203L167.085 208.391L187.943 208.391L187.943 229.203L167.085 229.203Z" fill="#5D4037"/>
<path d="M187.943 145.953L187.943 125.141L208.8 125.141L208.8 145.953L187.943 145.953Z" fill="#3E2723"/>
<path d="M187.943 187.312L187.943 166.5L208.8 166.5L208.8 187.313L187.943 187.312Z" fill="#3E2723"/>
<path d="M208.343 187.312L208.343 166.5L229.2 166.5L229.2 187.313L208.343 187.312Z" fill="#3E2723"/>
<path d="M187.943 229.203L187.943 208.391L208.8 208.391L208.8 229.203L187.943 229.203Z" fill="#5D4037"/>
<path d="M208.8 104.328L208.8 83.5156L229.657 83.5156L229.657 104.328L208.8 104.328Z" fill="#3E2723"/>
<path d="M208.8 145.953L208.8 125.141L229.657 125.141L229.657 145.953L208.8 145.953Z" fill="#3E2723"/>
<path d="M208.8 229.203L208.8 208.391L229.657 208.391L229.657 229.203L208.8 229.203Z" fill="#3E2723"/>
<path d="M208.571 228.938L208.571 208.125L229.428 208.125L229.428 228.938L208.571 228.938Z" fill="#C7B8B2"/>
<path d="M208.571 249.75L208.571 228.938L229.428 228.938L229.428 249.75L208.571 249.75Z" fill="#C7B8B2"/>
<path d="M208.571 270.562L208.571 249.75L229.428 249.75L229.428 270.563L208.571 270.562Z" fill="black"/>
<path d="M208.571 291.375L208.571 270.562L229.428 270.563L229.428 291.375L208.571 291.375Z" fill="#C7B8B2"/>
<path d="M208.571 312.188L208.571 291.375L229.428 291.375L229.428 312.188L208.571 312.188Z" fill="#A1887F"/>
<path d="M208.571 333L208.571 312.188L229.428 312.188L229.428 333L208.571 333Z" fill="black"/>
<path d="M229.429 20.8125L229.429 0L250.286 9.11695e-07L250.286 20.8125L229.429 20.8125Z" fill="black"/>
<path d="M229.429 41.625L229.429 20.8125L250.286 20.8125L250.286 41.625L229.429 41.625Z" fill="#A1887F"/>
<path d="M229.429 62.4375L229.429 41.625L250.286 41.625L250.286 62.4375L229.429 62.4375Z" fill="#C7B8B2"/>
<path d="M229.429 83.25L229.429 62.4375L250.286 62.4375L250.286 83.25L229.429 83.25Z" fill="#C7B8B2"/>
<path d="M229.429 104.062L229.429 83.25L250.286 83.25L250.286 104.063L229.429 104.062Z" fill="#C7B8B2"/>
<path d="M229.429 124.875L229.429 104.062L250.286 104.063L250.286 124.875L229.429 124.875Z" fill="#C7B8B2"/>
<path d="M229.429 145.688L229.429 124.875L250.286 124.875L250.286 145.688L229.429 145.688Z" fill="#C7B8B2"/>
<path d="M229.429 166.5L229.429 145.688L250.286 145.688L250.286 166.5L229.429 166.5Z" fill="#C7B8B2"/>
<path d="M229.429 187.312L229.429 166.5L250.286 166.5L250.286 187.313L229.429 187.312Z" fill="#C7B8B2"/>
<path d="M229.429 208.125L229.429 187.312L250.286 187.313L250.286 208.125L229.429 208.125Z" fill="#C7B8B2"/>
<path d="M229.429 228.938L229.429 208.125L250.286 208.125L250.286 228.938L229.429 228.938Z" fill="#C7B8B2"/>
<path d="M229.429 249.75L229.429 228.938L250.286 228.938L250.286 249.75L229.429 249.75Z" fill="#C7B8B2"/>
<path d="M229.429 270.562L229.429 249.75L250.286 249.75L250.286 270.563L229.429 270.562Z" fill="black"/>
<path d="M229.429 291.375L229.429 270.562L250.286 270.563L250.286 291.375L229.429 291.375Z" fill="black"/>
<path d="M229.429 312.188L229.429 291.375L250.286 291.375L250.286 312.188L229.429 312.188Z" fill="#A1887F"/>
<path d="M229.429 333L229.429 312.188L250.286 312.188L250.286 333L229.429 333Z" fill="black"/>
<path d="M250.286 20.8125L250.286 0L271.143 9.11695e-07L271.143 20.8125L250.286 20.8125Z" fill="black"/>
<path d="M250.286 41.625L250.286 20.8125L271.143 20.8125L271.143 41.625L250.286 41.625Z" fill="#A1887F"/>
<path d="M250.286 62.4375L250.286 41.625L271.143 41.625L271.143 62.4375L250.286 62.4375Z" fill="#A1887F"/>
<path d="M250.286 83.25L250.286 62.4375L271.143 62.4375L271.143 83.25L250.286 83.25Z" fill="#A1887F"/>
<path d="M250.286 104.062L250.286 83.25L271.143 83.25L271.143 104.063L250.286 104.062Z" fill="#A1887F"/>
<path d="M250.286 124.875L250.286 104.062L271.143 104.063L271.143 124.875L250.286 124.875Z" fill="black"/>
<path d="M250.286 145.688L250.286 124.875L271.143 124.875L271.143 145.688L250.286 145.688Z" fill="#A1887F"/>
<path d="M250.286 166.5L250.286 145.688L271.143 145.688L271.143 166.5L250.286 166.5Z" fill="#A1887F"/>
<path d="M250.286 187.312L250.286 166.5L271.143 166.5L271.143 187.313L250.286 187.312Z" fill="#A1887F"/>
<path d="M250.286 208.125L250.286 187.312L271.143 187.313L271.143 208.125L250.286 208.125Z" fill="black"/>
<path d="M250.286 228.938L250.286 208.125L271.143 208.125L271.143 228.938L250.286 228.938Z" fill="black"/>
<path d="M250.286 249.75L250.286 228.938L271.143 228.938L271.143 249.75L250.286 249.75Z" fill="#A1887F"/>
<path d="M250.286 270.562L250.286 249.75L271.143 249.75L271.143 270.563L250.286 270.562Z" fill="#A1887F"/>
<path d="M250.286 291.375L250.286 270.562L271.143 270.563L271.143 291.375L250.286 291.375Z" fill="#A1887F"/>
<path d="M250.286 312.188L250.286 291.375L271.143 291.375L271.143 312.188L250.286 312.188Z" fill="black"/>
<path d="M271.143 20.8125L271.143 0L292 9.11695e-07L292 20.8125L271.143 20.8125Z" fill="black"/>
<path d="M271.143 41.625L271.143 20.8125L292 20.8125L292 41.625L271.143 41.625Z" fill="black"/>
<path d="M271.143 62.4375L271.143 41.625L292 41.625L292 62.4375L271.143 62.4375Z" fill="black"/>
<path d="M271.143 83.25L271.143 62.4375L292 62.4375L292 83.25L271.143 83.25Z" fill="black"/>
<path d="M271.143 104.062L271.143 83.25L292 83.25L292 104.063L271.143 104.062Z" fill="black"/>
<path d="M271.143 145.688L271.143 124.875L292 124.875L292 145.688L271.143 145.688Z" fill="black"/>
<path d="M271.143 166.5L271.143 145.688L292 145.688L292 166.5L271.143 166.5Z" fill="black"/>
<path d="M271.143 187.312L271.143 166.5L292 166.5L292 187.313L271.143 187.312Z" fill="black"/>
<path d="M271.143 249.75L271.143 228.938L292 228.938L292 249.75L271.143 249.75Z" fill="black"/>
<path d="M271.143 270.562L271.143 249.75L292 249.75L292 270.563L271.143 270.562Z" fill="black"/>
<path d="M271.143 291.375L271.143 270.562L292 270.563L292 291.375L271.143 291.375Z" fill="black"/>
</g>
<defs>
<clipPath id="clip0_12_302093">
<rect width="333" height="292" fill="white" transform="matrix(-4.37114e-08 1 1 4.37114e-08 0 0)"/>
</clipPath>
</defs>
</svg>
