<svg width="150" height="150" viewBox="0 0 150 150" fill="none" xmlns="http://www.w3.org/2000/svg">
<g clip-path="url(#clip0_14_23520)">
<path d="M18.75 0H9.375V9.375H18.75V0Z" fill="black"/>
<path d="M28.125 0H18.75V9.375H28.125V0Z" fill="black"/>
<path d="M37.5 0H28.125V9.375H37.5V0Z" fill="black"/>
<path d="M65.625 0H56.25V9.375H65.625V0Z" fill="black"/>
<path d="M75 0H65.625V9.375H75V0Z" fill="black"/>
<path d="M84.375 0H75V9.375H84.375V0Z" fill="black"/>
<path d="M93.75 0H84.375V9.375H93.75V0Z" fill="black"/>
<path d="M121.875 0H112.5V9.375H121.875V0Z" fill="black"/>
<path d="M131.25 0H121.875V9.375H131.25V0Z" fill="black"/>
<path d="M140.625 0H131.25V9.375H140.625V0Z" fill="black"/>
<path d="M9.375 9.375H0V18.75H9.375V9.375Z" fill="black"/>
<path d="M18.75 9.375H9.375V18.75H18.75V9.375Z" fill="#AFBFFF"/>
<path d="M28.125 9.375H18.75V18.75H28.125V9.375Z" fill="#AFBFFF"/>
<path d="M37.5 9.375H28.125V18.75H37.5V9.375Z" fill="#AFBFFF"/>
<path d="M46.875 9.375H37.5V18.75H46.875V9.375Z" fill="black"/>
<path d="M56.25 9.375H46.875V18.75H56.25V9.375Z" fill="black"/>
<path d="M65.625 9.375H56.25V18.75H65.625V9.375Z" fill="#AFBFFF"/>
<path d="M75 9.375H65.625V18.75H75V9.375Z" fill="#AFBFFF"/>
<path d="M84.375 9.375H75V18.75H84.375V9.375Z" fill="#AFBFFF"/>
<path d="M93.75 9.375H84.375V18.75H93.75V9.375Z" fill="#AFBFFF"/>
<path d="M103.125 9.375H93.75V18.75H103.125V9.375Z" fill="black"/>
<path d="M112.5 9.375H103.125V18.75H112.5V9.375Z" fill="black"/>
<path d="M121.875 9.375H112.5V18.75H121.875V9.375Z" fill="#AFBFFF"/>
<path d="M131.25 9.375H121.875V18.75H131.25V9.375Z" fill="#AFBFFF"/>
<path d="M140.625 9.375H131.25V18.75H140.625V9.375Z" fill="#AFBFFF"/>
<path d="M150 9.375H140.625V18.75H150V9.375Z" fill="black"/>
<path d="M9.375 18.75H0V28.125H9.375V18.75Z" fill="#AFBFFF"/>
<path d="M18.75 18.75H9.375V28.125H18.75V18.75Z" fill="#5677FC"/>
<path d="M28.125 18.75H18.75V28.125H28.125V18.75Z" fill="#5677FC"/>
<path d="M37.5 18.75H28.125V28.125H37.5V18.75Z" fill="#5677FC"/>
<path d="M46.875 18.75H37.5V28.125H46.875V18.75Z" fill="#AFBFFF"/>
<path d="M56.25 18.75H46.875V28.125H56.25V18.75Z" fill="#AFBFFF"/>
<path d="M65.625 18.75H56.25V28.125H65.625V18.75Z" fill="#5677FC"/>
<path d="M75 18.75H65.625V28.125H75V18.75Z" fill="#5677FC"/>
<path d="M84.375 18.75H75V28.125H84.375V18.75Z" fill="#5677FC"/>
<path d="M93.75 18.75H84.375V28.125H93.75V18.75Z" fill="#5677FC"/>
<path d="M103.125 18.75H93.75V28.125H103.125V18.75Z" fill="#AFBFFF"/>
<path d="M112.5 18.75H103.125V28.125H112.5V18.75Z" fill="#AFBFFF"/>
<path d="M121.875 18.75H112.5V28.125H121.875V18.75Z" fill="#5677FC"/>
<path d="M131.25 18.75H121.875V28.125H131.25V18.75Z" fill="#5677FC"/>
<path d="M140.625 18.75H131.25V28.125H140.625V18.75Z" fill="#5677FC"/>
<path d="M150 18.75H140.625V28.125H150V18.75Z" fill="#AFBFFF"/>
<path d="M9.375 28.125H0V37.5H9.375V28.125Z" fill="#5677FC"/>
<path d="M18.75 28.125H9.375V37.5H18.75V28.125Z" fill="#1A237E"/>
<path d="M28.125 28.125H18.75V37.5H28.125V28.125Z" fill="#1A237E"/>
<path d="M37.5 28.125H28.125V37.5H37.5V28.125Z" fill="#1A237E"/>
<path d="M46.875 28.125H37.5V37.5H46.875V28.125Z" fill="#5677FC"/>
<path d="M56.25 28.125H46.875V37.5H56.25V28.125Z" fill="#5677FC"/>
<path d="M65.625 28.125H56.25V37.5H65.625V28.125Z" fill="#1A237E"/>
<path d="M75 28.125H65.625V37.5H75V28.125Z" fill="#1A237E"/>
<path d="M84.375 28.125H75V37.5H84.375V28.125Z" fill="#1A237E"/>
<path d="M93.75 28.125H84.375V37.5H93.75V28.125Z" fill="#1A237E"/>
<path d="M103.125 28.125H93.75V37.5H103.125V28.125Z" fill="#5677FC"/>
<path d="M112.5 28.125H103.125V37.5H112.5V28.125Z" fill="#5677FC"/>
<path d="M121.875 28.125H112.5V37.5H121.875V28.125Z" fill="#1A237E"/>
<path d="M131.25 28.125H121.875V37.5H131.25V28.125Z" fill="#1A237E"/>
<path d="M140.625 28.125H131.25V37.5H140.625V28.125Z" fill="#1A237E"/>
<path d="M150 28.125H140.625V37.5H150V28.125Z" fill="#5677FC"/>
<path d="M9.375 37.5H0V46.875H9.375V37.5Z" fill="#1A237E"/>
<path d="M18.75 37.5H9.375V46.875H18.75V37.5Z" fill="#2A36B1"/>
<path d="M28.125 37.5H18.75V46.875H28.125V37.5Z" fill="#2A36B1"/>
<path d="M37.5 37.5H28.125V46.875H37.5V37.5Z" fill="#2A36B1"/>
<path d="M46.875 37.5H37.5V46.875H46.875V37.5Z" fill="#1A237E"/>
<path d="M56.25 37.5H46.875V46.875H56.25V37.5Z" fill="#1A237E"/>
<path d="M65.625 37.5H56.25V46.875H65.625V37.5Z" fill="#2A36B1"/>
<path d="M75 37.5H65.625V46.875H75V37.5Z" fill="#2A36B1"/>
<path d="M84.375 37.5H75V46.875H84.375V37.5Z" fill="#2A36B1"/>
<path d="M93.75 37.5H84.375V46.875H93.75V37.5Z" fill="#2A36B1"/>
<path d="M103.125 37.5H93.75V46.875H103.125V37.5Z" fill="#1A237E"/>
<path d="M112.5 37.5H103.125V46.875H112.5V37.5Z" fill="#1A237E"/>
<path d="M121.875 37.5H112.5V46.875H121.875V37.5Z" fill="#2A36B1"/>
<path d="M131.25 37.5H121.875V46.875H131.25V37.5Z" fill="#2A36B1"/>
<path d="M140.625 37.5H131.25V46.875H140.625V37.5Z" fill="#2A36B1"/>
<path d="M150 37.5H140.625V46.875H150V37.5Z" fill="#1A237E"/>
<path d="M9.375 46.875H0V56.25H9.375V46.875Z" fill="#2A36B1"/>
<path d="M18.75 46.875H9.375V56.25H18.75V46.875Z" fill="#2A36B1"/>
<path d="M28.125 46.875H18.75V56.25H28.125V46.875Z" fill="#2A36B1"/>
<path d="M37.5 46.875H28.125V56.25H37.5V46.875Z" fill="#2A36B1"/>
<path d="M46.875 46.875H37.5V56.25H46.875V46.875Z" fill="#2A36B1"/>
<path d="M56.25 46.875H46.875V56.25H56.25V46.875Z" fill="#2A36B1"/>
<path d="M65.625 46.875H56.25V56.25H65.625V46.875Z" fill="#2A36B1"/>
<path d="M75 46.875H65.625V56.25H75V46.875Z" fill="#2A36B1"/>
<path d="M84.375 46.875H75V56.25H84.375V46.875Z" fill="#2A36B1"/>
<path d="M93.75 46.875H84.375V56.25H93.75V46.875Z" fill="#2A36B1"/>
<path d="M103.125 46.875H93.75V56.25H103.125V46.875Z" fill="#2A36B1"/>
<path d="M112.5 46.875H103.125V56.25H112.5V46.875Z" fill="#2A36B1"/>
<path d="M121.875 46.875H112.5V56.25H121.875V46.875Z" fill="#2A36B1"/>
<path d="M131.25 46.875H121.875V56.25H131.25V46.875Z" fill="#2A36B1"/>
<path d="M140.625 46.875H131.25V56.25H140.625V46.875Z" fill="#2A36B1"/>
<path d="M150 46.875H140.625V56.25H150V46.875Z" fill="#2A36B1"/>
<path d="M9.375 56.25H0V65.625H9.375V56.25Z" fill="#2A36B1"/>
<path d="M18.75 56.25H9.375V65.625H18.75V56.25Z" fill="#2A36B1"/>
<path d="M28.125 56.25H18.75V65.625H28.125V56.25Z" fill="#5677FC"/>
<path d="M37.5 56.25H28.125V65.625H37.5V56.25Z" fill="#2A36B1"/>
<path d="M46.875 56.25H37.5V65.625H46.875V56.25Z" fill="#AFBFFF"/>
<path d="M56.25 56.25H46.875V65.625H56.25V56.25Z" fill="#AFBFFF"/>
<path d="M65.625 56.25H56.25V65.625H65.625V56.25Z" fill="#5677FC"/>
<path d="M75 56.25H65.625V65.625H75V56.25Z" fill="#2A36B1"/>
<path d="M84.375 56.25H75V65.625H84.375V56.25Z" fill="#2A36B1"/>
<path d="M93.75 56.25H84.375V65.625H93.75V56.25Z" fill="#2A36B1"/>
<path d="M103.125 56.25H93.75V65.625H103.125V56.25Z" fill="#2A36B1"/>
<path d="M112.5 56.25H103.125V65.625H112.5V56.25Z" fill="#AFBFFF"/>
<path d="M121.875 56.25H112.5V65.625H121.875V56.25Z" fill="#5677FC"/>
<path d="M131.25 56.25H121.875V65.625H131.25V56.25Z" fill="#5677FC"/>
<path d="M140.625 56.25H131.25V65.625H140.625V56.25Z" fill="#2A36B1"/>
<path d="M150 56.25H140.625V65.625H150V56.25Z" fill="#2A36B1"/>
<path d="M9.375 65.625H0V75H9.375V65.625Z" fill="#2A36B1"/>
<path d="M18.75 65.625H9.375V75H18.75V65.625Z" fill="#2A36B1"/>
<path d="M28.125 65.625H18.75V75H28.125V65.625Z" fill="#1A237E"/>
<path d="M37.5 65.625H28.125V75H37.5V65.625Z" fill="#1A237E"/>
<path d="M46.875 65.625H37.5V75H46.875V65.625Z" fill="#1A237E"/>
<path d="M56.25 65.625H46.875V75H56.25V65.625Z" fill="#2A36B1"/>
<path d="M65.625 65.625H56.25V75H65.625V65.625Z" fill="#2A36B1"/>
<path d="M75 65.625H65.625V75H75V65.625Z" fill="#1A237E"/>
<path d="M84.375 65.625H75V75H84.375V65.625Z" fill="#2A36B1"/>
<path d="M93.75 65.625H84.375V75H93.75V65.625Z" fill="#1A237E"/>
<path d="M103.125 65.625H93.75V75H103.125V65.625Z" fill="#1A237E"/>
<path d="M112.5 65.625H103.125V75H112.5V65.625Z" fill="#1A237E"/>
<path d="M121.875 65.625H112.5V75H121.875V65.625Z" fill="#2A36B1"/>
<path d="M131.25 65.625H121.875V75H131.25V65.625Z" fill="#1A237E"/>
<path d="M140.625 65.625H131.25V75H140.625V65.625Z" fill="#2A36B1"/>
<path d="M150 65.625H140.625V75H150V65.625Z" fill="#2A36B1"/>
<path d="M9.375 75H0V84.375H9.375V75Z" fill="#2A36B1"/>
<path d="M18.75 75H9.375V84.375H18.75V75Z" fill="#2A36B1"/>
<path d="M28.125 75H18.75V84.375H28.125V75Z" fill="#2A36B1"/>
<path d="M37.5 75H28.125V84.375H37.5V75Z" fill="#2A36B1"/>
<path d="M46.875 75H37.5V84.375H46.875V75Z" fill="#2A36B1"/>
<path d="M56.25 75H46.875V84.375H56.25V75Z" fill="#2A36B1"/>
<path d="M65.625 75H56.25V84.375H65.625V75Z" fill="#2A36B1"/>
<path d="M75 75H65.625V84.375H75V75Z" fill="#2A36B1"/>
<path d="M84.375 75H75V84.375H84.375V75Z" fill="#2A36B1"/>
<path d="M93.75 75H84.375V84.375H93.75V75Z" fill="#2A36B1"/>
<path d="M103.125 75H93.75V84.375H103.125V75Z" fill="#2A36B1"/>
<path d="M112.5 75H103.125V84.375H112.5V75Z" fill="#2A36B1"/>
<path d="M121.875 75H112.5V84.375H121.875V75Z" fill="#2A36B1"/>
<path d="M131.25 75H121.875V84.375H131.25V75Z" fill="#2A36B1"/>
<path d="M140.625 75H131.25V84.375H140.625V75Z" fill="#2A36B1"/>
<path d="M150 75H140.625V84.375H150V75Z" fill="#2A36B1"/>
<path d="M9.375 84.375H0V93.75H9.375V84.375Z" fill="#2A36B1"/>
<path d="M18.75 84.375H9.375V93.75H18.75V84.375Z" fill="#2A36B1"/>
<path d="M28.125 84.375H18.75V93.75H28.125V84.375Z" fill="#2A36B1"/>
<path d="M37.5 84.375H28.125V93.75H37.5V84.375Z" fill="#2A36B1"/>
<path d="M46.875 84.375H37.5V93.75H46.875V84.375Z" fill="#2A36B1"/>
<path d="M56.25 84.375H46.875V93.75H56.25V84.375Z" fill="#2A36B1"/>
<path d="M65.625 84.375H56.25V93.75H65.625V84.375Z" fill="#2A36B1"/>
<path d="M75 84.375H65.625V93.75H75V84.375Z" fill="#2A36B1"/>
<path d="M84.375 84.375H75V93.75H84.375V84.375Z" fill="#2A36B1"/>
<path d="M93.75 84.375H84.375V93.75H93.75V84.375Z" fill="#2A36B1"/>
<path d="M103.125 84.375H93.75V93.75H103.125V84.375Z" fill="#2A36B1"/>
<path d="M112.5 84.375H103.125V93.75H112.5V84.375Z" fill="#2A36B1"/>
<path d="M121.875 84.375H112.5V93.75H121.875V84.375Z" fill="#2A36B1"/>
<path d="M131.25 84.375H121.875V93.75H131.25V84.375Z" fill="#2A36B1"/>
<path d="M140.625 84.375H131.25V93.75H140.625V84.375Z" fill="#2A36B1"/>
<path d="M150 84.375H140.625V93.75H150V84.375Z" fill="#2A36B1"/>
<path d="M9.375 93.75H0V103.125H9.375V93.75Z" fill="#5677FC"/>
<path d="M18.75 93.75H9.375V103.125H18.75V93.75Z" fill="#5677FC"/>
<path d="M28.125 93.75H18.75V103.125H28.125V93.75Z" fill="#2A36B1"/>
<path d="M37.5 93.75H28.125V103.125H37.5V93.75Z" fill="#2A36B1"/>
<path d="M46.875 93.75H37.5V103.125H46.875V93.75Z" fill="#2A36B1"/>
<path d="M56.25 93.75H46.875V103.125H56.25V93.75Z" fill="#2A36B1"/>
<path d="M65.625 93.75H56.25V103.125H65.625V93.75Z" fill="#AFBFFF"/>
<path d="M75 93.75H65.625V103.125H75V93.75Z" fill="#5677FC"/>
<path d="M84.375 93.75H75V103.125H84.375V93.75Z" fill="#5677FC"/>
<path d="M93.75 93.75H84.375V103.125H93.75V93.75Z" fill="#5677FC"/>
<path d="M103.125 93.75H93.75V103.125H103.125V93.75Z" fill="#2A36B1"/>
<path d="M112.5 93.75H103.125V103.125H112.5V93.75Z" fill="#5677FC"/>
<path d="M121.875 93.75H112.5V103.125H121.875V93.75Z" fill="#2A36B1"/>
<path d="M131.25 93.75H121.875V103.125H131.25V93.75Z" fill="#2A36B1"/>
<path d="M140.625 93.75H131.25V103.125H140.625V93.75Z" fill="#2A36B1"/>
<path d="M150 93.75H140.625V103.125H150V93.75Z" fill="#AFBFFF"/>
<path d="M9.375 103.125H0V112.5H9.375V103.125Z" fill="#2A36B1"/>
<path d="M18.75 103.125H9.375V112.5H18.75V103.125Z" fill="#2A36B1"/>
<path d="M28.125 103.125H18.75V112.5H28.125V103.125Z" fill="#1A237E"/>
<path d="M37.5 103.125H28.125V112.5H37.5V103.125Z" fill="#2A36B1"/>
<path d="M46.875 103.125H37.5V112.5H46.875V103.125Z" fill="#1A237E"/>
<path d="M56.25 103.125H46.875V112.5H56.25V103.125Z" fill="#1A237E"/>
<path d="M65.625 103.125H56.25V112.5H65.625V103.125Z" fill="#2A36B1"/>
<path d="M75 103.125H65.625V112.5H75V103.125Z" fill="#2A36B1"/>
<path d="M84.375 103.125H75V112.5H84.375V103.125Z" fill="#1A237E"/>
<path d="M93.75 103.125H84.375V112.5H93.75V103.125Z" fill="#1A237E"/>
<path d="M103.125 103.125H93.75V112.5H103.125V103.125Z" fill="#1A237E"/>
<path d="M112.5 103.125H103.125V112.5H112.5V103.125Z" fill="#2A36B1"/>
<path d="M121.875 103.125H112.5V112.5H121.875V103.125Z" fill="#1A237E"/>
<path d="M131.25 103.125H121.875V112.5H131.25V103.125Z" fill="#2A36B1"/>
<path d="M140.625 103.125H131.25V112.5H140.625V103.125Z" fill="#2A36B1"/>
<path d="M150 103.125H140.625V112.5H150V103.125Z" fill="#2A36B1"/>
<path d="M9.375 112.5H0V121.875H9.375V112.5Z" fill="#2A36B1"/>
<path d="M18.75 112.5H9.375V121.875H18.75V112.5Z" fill="#2A36B1"/>
<path d="M28.125 112.5H18.75V121.875H28.125V112.5Z" fill="#2A36B1"/>
<path d="M37.5 112.5H28.125V121.875H37.5V112.5Z" fill="#2A36B1"/>
<path d="M46.875 112.5H37.5V121.875H46.875V112.5Z" fill="#2A36B1"/>
<path d="M56.25 112.5H46.875V121.875H56.25V112.5Z" fill="#2A36B1"/>
<path d="M65.625 112.5H56.25V121.875H65.625V112.5Z" fill="#2A36B1"/>
<path d="M75 112.5H65.625V121.875H75V112.5Z" fill="#2A36B1"/>
<path d="M84.375 112.5H75V121.875H84.375V112.5Z" fill="#2A36B1"/>
<path d="M93.75 112.5H84.375V121.875H93.75V112.5Z" fill="#2A36B1"/>
<path d="M103.125 112.5H93.75V121.875H103.125V112.5Z" fill="#2A36B1"/>
<path d="M112.5 112.5H103.125V121.875H112.5V112.5Z" fill="#2A36B1"/>
<path d="M121.875 112.5H112.5V121.875H121.875V112.5Z" fill="#2A36B1"/>
<path d="M131.25 112.5H121.875V121.875H131.25V112.5Z" fill="#2A36B1"/>
<path d="M140.625 112.5H131.25V121.875H140.625V112.5Z" fill="#2A36B1"/>
<path d="M150 112.5H140.625V121.875H150V112.5Z" fill="#2A36B1"/>
<path d="M9.375 121.875H0V131.25H9.375V121.875Z" fill="#2A36B1"/>
<path d="M18.75 121.875H9.375V131.25H18.75V121.875Z" fill="#2A36B1"/>
<path d="M28.125 121.875H18.75V131.25H28.125V121.875Z" fill="#2A36B1"/>
<path d="M37.5 121.875H28.125V131.25H37.5V121.875Z" fill="#2A36B1"/>
<path d="M46.875 121.875H37.5V131.25H46.875V121.875Z" fill="#AFBFFF"/>
<path d="M56.25 121.875H46.875V131.25H56.25V121.875Z" fill="#5677FC"/>
<path d="M65.625 121.875H56.25V131.25H65.625V121.875Z" fill="#2A36B1"/>
<path d="M75 121.875H65.625V131.25H75V121.875Z" fill="#2A36B1"/>
<path d="M84.375 121.875H75V131.25H84.375V121.875Z" fill="#2A36B1"/>
<path d="M93.75 121.875H84.375V131.25H93.75V121.875Z" fill="#AFBFFF"/>
<path d="M103.125 121.875H93.75V131.25H103.125V121.875Z" fill="#AFBFFF"/>
<path d="M112.5 121.875H103.125V131.25H112.5V121.875Z" fill="#5677FC"/>
<path d="M121.875 121.875H112.5V131.25H121.875V121.875Z" fill="#2A36B1"/>
<path d="M131.25 121.875H121.875V131.25H131.25V121.875Z" fill="#2A36B1"/>
<path d="M140.625 121.875H131.25V131.25H140.625V121.875Z" fill="#AFBFFF"/>
<path d="M150 121.875H140.625V131.25H150V121.875Z" fill="#5677FC"/>
<path d="M9.375 131.25H0V140.625H9.375V131.25Z" fill="#2A36B1"/>
<path d="M18.75 131.25H9.375V140.625H18.75V131.25Z" fill="#1A237E"/>
<path d="M28.125 131.25H18.75V140.625H28.125V131.25Z" fill="#1A237E"/>
<path d="M37.5 131.25H28.125V140.625H37.5V131.25Z" fill="#2A36B1"/>
<path d="M46.875 131.25H37.5V140.625H46.875V131.25Z" fill="#2A36B1"/>
<path d="M56.25 131.25H46.875V140.625H56.25V131.25Z" fill="#2A36B1"/>
<path d="M65.625 131.25H56.25V140.625H65.625V131.25Z" fill="#1A237E"/>
<path d="M75 131.25H65.625V140.625H75V131.25Z" fill="#2A36B1"/>
<path d="M84.375 131.25H75V140.625H84.375V131.25Z" fill="#1A237E"/>
<path d="M93.75 131.25H84.375V140.625H93.75V131.25Z" fill="#1A237E"/>
<path d="M103.125 131.25H93.75V140.625H103.125V131.25Z" fill="#1A237E"/>
<path d="M112.5 131.25H103.125V140.625H112.5V131.25Z" fill="#2A36B1"/>
<path d="M121.875 131.25H112.5V140.625H121.875V131.25Z" fill="#2A36B1"/>
<path d="M131.25 131.25H121.875V140.625H131.25V131.25Z" fill="#1A237E"/>
<path d="M140.625 131.25H131.25V140.625H140.625V131.25Z" fill="#1A237E"/>
<path d="M150 131.25H140.625V140.625H150V131.25Z" fill="#2A36B1"/>
<path d="M9.375 140.625H0V150H9.375V140.625Z" fill="#2A36B1"/>
<path d="M18.75 140.625H9.375V150H18.75V140.625Z" fill="#2A36B1"/>
<path d="M28.125 140.625H18.75V150H28.125V140.625Z" fill="#2A36B1"/>
<path d="M37.5 140.625H28.125V150H37.5V140.625Z" fill="#2A36B1"/>
<path d="M46.875 140.625H37.5V150H46.875V140.625Z" fill="#2A36B1"/>
<path d="M56.25 140.625H46.875V150H56.25V140.625Z" fill="#2A36B1"/>
<path d="M65.625 140.625H56.25V150H65.625V140.625Z" fill="#2A36B1"/>
<path d="M75 140.625H65.625V150H75V140.625Z" fill="#2A36B1"/>
<path d="M84.375 140.625H75V150H84.375V140.625Z" fill="#2A36B1"/>
<path d="M93.75 140.625H84.375V150H93.75V140.625Z" fill="#2A36B1"/>
<path d="M103.125 140.625H93.75V150H103.125V140.625Z" fill="#2A36B1"/>
<path d="M112.5 140.625H103.125V150H112.5V140.625Z" fill="#2A36B1"/>
<path d="M121.875 140.625H112.5V150H121.875V140.625Z" fill="#2A36B1"/>
<path d="M131.25 140.625H121.875V150H131.25V140.625Z" fill="#2A36B1"/>
<path d="M140.625 140.625H131.25V150H140.625V140.625Z" fill="#2A36B1"/>
<path d="M150 140.625H140.625V150H150V140.625Z" fill="#2A36B1"/>
</g>
<defs>
<clipPath id="clip0_14_23520">
<rect width="150" height="150" fill="white"/>
</clipPath>
</defs>
</svg>
