<svg width="216" height="305" viewBox="0 0 216 305" fill="none" xmlns="http://www.w3.org/2000/svg">
<g clip-path="url(#clip0_14_41137)">
<path d="M114.353 0H101.647V12.7083H114.353V0Z" fill="black"/>
<path d="M101.647 12.708H88.9414V25.4163H101.647V12.708Z" fill="black"/>
<path d="M114.353 12.708H101.647V25.4163H114.353V12.708Z" fill="#FFCC80"/>
<path d="M127.059 12.708H114.353V25.4163H127.059V12.708Z" fill="black"/>
<path d="M114.353 25.417H101.647V38.1253H114.353V25.417Z" fill="black"/>
<path d="M50.8236 38.125H38.1177V50.8333H50.8236V38.125Z" fill="black"/>
<path d="M63.5296 38.125H50.8237V50.8333H63.5296V38.125Z" fill="black"/>
<path d="M76.2352 38.125H63.5293V50.8333H76.2352V38.125Z" fill="black"/>
<path d="M88.9412 38.125H76.2354V50.8333H88.9412V38.125Z" fill="black"/>
<path d="M101.647 38.125H88.9414V50.8333H101.647V38.125Z" fill="black"/>
<path d="M114.353 38.125H101.647V50.8333H114.353V38.125Z" fill="black"/>
<path d="M127.059 38.125H114.353V50.8333H127.059V38.125Z" fill="black"/>
<path d="M139.764 38.125H127.059V50.8333H139.764V38.125Z" fill="black"/>
<path d="M152.471 38.125H139.765V50.8333H152.471V38.125Z" fill="black"/>
<path d="M165.177 38.125H152.471V50.8333H165.177V38.125Z" fill="black"/>
<path d="M177.882 38.125H165.176V50.8333H177.882V38.125Z" fill="black"/>
<path d="M12.7059 50.833H0V63.5413H12.7059V50.833Z" fill="black"/>
<path d="M25.4119 50.833H12.7061V63.5413H25.4119V50.833Z" fill="black"/>
<path d="M38.1175 50.833H25.4116V63.5413H38.1175V50.833Z" fill="black"/>
<path d="M50.8236 50.833H38.1177V63.5413H50.8236V50.833Z" fill="#FDD835"/>
<path d="M63.5296 50.833H50.8237V63.5413H63.5296V50.833Z" fill="#FDD835"/>
<path d="M76.2352 50.833H63.5293V63.5413H76.2352V50.833Z" fill="#FDD835"/>
<path d="M88.9412 50.833H76.2354V63.5413H88.9412V50.833Z" fill="#FDD835"/>
<path d="M101.647 50.833H88.9414V63.5413H101.647V50.833Z" fill="#FDD835"/>
<path d="M114.353 50.833H101.647V63.5413H114.353V50.833Z" fill="#FDD835"/>
<path d="M127.059 50.833H114.353V63.5413H127.059V50.833Z" fill="#FDD835"/>
<path d="M139.764 50.833H127.059V63.5413H139.764V50.833Z" fill="#FDD835"/>
<path d="M152.471 50.833H139.765V63.5413H152.471V50.833Z" fill="#FDD835"/>
<path d="M165.177 50.833H152.471V63.5413H165.177V50.833Z" fill="#FDD835"/>
<path d="M177.882 50.833H165.176V63.5413H177.882V50.833Z" fill="#FDD835"/>
<path d="M190.588 50.833H177.882V63.5413H190.588V50.833Z" fill="black"/>
<path d="M203.294 50.833H190.588V63.5413H203.294V50.833Z" fill="black"/>
<path d="M216 50.833H203.294V63.5413H216V50.833Z" fill="black"/>
<path d="M12.7059 63.542H0V76.2503H12.7059V63.542Z" fill="black"/>
<path d="M25.4119 63.542H12.7061V76.2503H25.4119V63.542Z" fill="#FDD835"/>
<path d="M38.1175 63.542H25.4116V76.2503H38.1175V63.542Z" fill="#FDD835"/>
<path d="M50.8236 63.542H38.1177V76.2503H50.8236V63.542Z" fill="white"/>
<path d="M63.5296 63.542H50.8237V76.2503H63.5296V63.542Z" fill="white"/>
<path d="M76.2352 63.542H63.5293V76.2503H76.2352V63.542Z" fill="white"/>
<path d="M88.9412 63.542H76.2354V76.2503H88.9412V63.542Z" fill="white"/>
<path d="M101.647 63.542H88.9414V76.2503H101.647V63.542Z" fill="white"/>
<path d="M114.353 63.542H101.647V76.2503H114.353V63.542Z" fill="white"/>
<path d="M127.059 63.542H114.353V76.2503H127.059V63.542Z" fill="white"/>
<path d="M139.764 63.542H127.059V76.2503H139.764V63.542Z" fill="white"/>
<path d="M152.471 63.542H139.765V76.2503H152.471V63.542Z" fill="white"/>
<path d="M165.177 63.542H152.471V76.2503H165.177V63.542Z" fill="white"/>
<path d="M177.882 63.542H165.176V76.2503H177.882V63.542Z" fill="white"/>
<path d="M190.588 63.542H177.882V76.2503H190.588V63.542Z" fill="#FDD835"/>
<path d="M203.294 63.542H190.588V76.2503H203.294V63.542Z" fill="#FDD835"/>
<path d="M216 63.542H203.294V76.2503H216V63.542Z" fill="black"/>
<path d="M12.7059 76.25H0V88.9583H12.7059V76.25Z" fill="black"/>
<path d="M25.4119 76.25H12.7061V88.9583H25.4119V76.25Z" fill="white"/>
<path d="M38.1175 76.25H25.4116V88.9583H38.1175V76.25Z" fill="white"/>
<path d="M50.8236 76.25H38.1177V88.9583H50.8236V76.25Z" fill="white"/>
<path d="M63.5296 76.25H50.8237V88.9583H63.5296V76.25Z" fill="white"/>
<path d="M76.2352 76.25H63.5293V88.9583H76.2352V76.25Z" fill="white"/>
<path d="M88.9412 76.25H76.2354V88.9583H88.9412V76.25Z" fill="white"/>
<path d="M101.647 76.25H88.9414V88.9583H101.647V76.25Z" fill="white"/>
<path d="M114.353 76.25H101.647V88.9583H114.353V76.25Z" fill="#FDD835"/>
<path d="M127.059 76.25H114.353V88.9583H127.059V76.25Z" fill="white"/>
<path d="M139.764 76.25H127.059V88.9583H139.764V76.25Z" fill="white"/>
<path d="M152.471 76.25H139.765V88.9583H152.471V76.25Z" fill="white"/>
<path d="M165.177 76.25H152.471V88.9583H165.177V76.25Z" fill="white"/>
<path d="M177.882 76.25H165.176V88.9583H177.882V76.25Z" fill="white"/>
<path d="M190.588 76.25H177.882V88.9583H190.588V76.25Z" fill="white"/>
<path d="M203.294 76.25H190.588V88.9583H203.294V76.25Z" fill="white"/>
<path d="M216 76.25H203.294V88.9583H216V76.25Z" fill="black"/>
<path d="M12.7059 88.958H0V101.666H12.7059V88.958Z" fill="black"/>
<path d="M25.4119 88.958H12.7061V101.666H25.4119V88.958Z" fill="white"/>
<path d="M38.1175 88.958H25.4116V101.666H38.1175V88.958Z" fill="white"/>
<path d="M50.8236 88.958H38.1177V101.666H50.8236V88.958Z" fill="white"/>
<path d="M63.5296 88.958H50.8237V101.666H63.5296V88.958Z" fill="white"/>
<path d="M76.2352 88.958H63.5293V101.666H76.2352V88.958Z" fill="#FDD835"/>
<path d="M88.9412 88.958H76.2354V101.666H88.9412V88.958Z" fill="#FDD835"/>
<path d="M101.647 88.958H88.9414V101.666H101.647V88.958Z" fill="#FDD835"/>
<path d="M114.353 88.958H101.647V101.666H114.353V88.958Z" fill="#FDD835"/>
<path d="M127.059 88.958H114.353V101.666H127.059V88.958Z" fill="#FDD835"/>
<path d="M139.764 88.958H127.059V101.666H139.764V88.958Z" fill="#FDD835"/>
<path d="M152.471 88.958H139.765V101.666H152.471V88.958Z" fill="#FDD835"/>
<path d="M165.177 88.958H152.471V101.666H165.177V88.958Z" fill="white"/>
<path d="M177.882 88.958H165.176V101.666H177.882V88.958Z" fill="white"/>
<path d="M190.588 88.958H177.882V101.666H190.588V88.958Z" fill="white"/>
<path d="M203.294 88.958H190.588V101.666H203.294V88.958Z" fill="white"/>
<path d="M216 88.958H203.294V101.666H216V88.958Z" fill="black"/>
<path d="M12.7059 101.667H0V114.375H12.7059V101.667Z" fill="black"/>
<path d="M25.4119 101.667H12.7061V114.375H25.4119V101.667Z" fill="white"/>
<path d="M38.1175 101.667H25.4116V114.375H38.1175V101.667Z" fill="white"/>
<path d="M50.8236 101.667H38.1177V114.375H50.8236V101.667Z" fill="white"/>
<path d="M63.5296 101.667H50.8237V114.375H63.5296V101.667Z" fill="white"/>
<path d="M76.2352 101.667H63.5293V114.375H76.2352V101.667Z" fill="#FDD835"/>
<path d="M88.9412 101.667H76.2354V114.375H88.9412V101.667Z" fill="white"/>
<path d="M101.647 101.667H88.9414V114.375H101.647V101.667Z" fill="white"/>
<path d="M114.353 101.667H101.647V114.375H114.353V101.667Z" fill="white"/>
<path d="M127.059 101.667H114.353V114.375H127.059V101.667Z" fill="white"/>
<path d="M139.764 101.667H127.059V114.375H139.764V101.667Z" fill="white"/>
<path d="M152.471 101.667H139.765V114.375H152.471V101.667Z" fill="#FDD835"/>
<path d="M165.177 101.667H152.471V114.375H165.177V101.667Z" fill="white"/>
<path d="M177.882 101.667H165.176V114.375H177.882V101.667Z" fill="white"/>
<path d="M190.588 101.667H177.882V114.375H190.588V101.667Z" fill="white"/>
<path d="M203.294 101.667H190.588V114.375H203.294V101.667Z" fill="white"/>
<path d="M216 101.667H203.294V114.375H216V101.667Z" fill="black"/>
<path d="M12.7059 114.375H0V127.083H12.7059V114.375Z" fill="black"/>
<path d="M25.4119 114.375H12.7061V127.083H25.4119V114.375Z" fill="white"/>
<path d="M38.1175 114.375H25.4116V127.083H38.1175V114.375Z" fill="white"/>
<path d="M50.8236 114.375H38.1177V127.083H50.8236V114.375Z" fill="white"/>
<path d="M63.5296 114.375H50.8237V127.083H63.5296V114.375Z" fill="white"/>
<path d="M76.2352 114.375H63.5293V127.083H76.2352V114.375Z" fill="white"/>
<path d="M88.9412 114.375H76.2354V127.083H88.9412V114.375Z" fill="#FDD835"/>
<path d="M101.647 114.375H88.9414V127.083H101.647V114.375Z" fill="#FDD835"/>
<path d="M114.353 114.375H101.647V127.083H114.353V114.375Z" fill="#FDD835"/>
<path d="M127.059 114.375H114.353V127.083H127.059V114.375Z" fill="#FDD835"/>
<path d="M139.764 114.375H127.059V127.083H139.764V114.375Z" fill="#FDD835"/>
<path d="M152.471 114.375H139.765V127.083H152.471V114.375Z" fill="white"/>
<path d="M165.177 114.375H152.471V127.083H165.177V114.375Z" fill="white"/>
<path d="M177.882 114.375H165.176V127.083H177.882V114.375Z" fill="white"/>
<path d="M190.588 114.375H177.882V127.083H190.588V114.375Z" fill="white"/>
<path d="M203.294 114.375H190.588V127.083H203.294V114.375Z" fill="white"/>
<path d="M216 114.375H203.294V127.083H216V114.375Z" fill="black"/>
<path d="M12.7059 127.083H0V139.791H12.7059V127.083Z" fill="black"/>
<path d="M25.4119 127.083H12.7061V139.791H25.4119V127.083Z" fill="white"/>
<path d="M38.1175 127.083H25.4116V139.791H38.1175V127.083Z" fill="white"/>
<path d="M50.8236 127.083H38.1177V139.791H50.8236V127.083Z" fill="white"/>
<path d="M63.5296 127.083H50.8237V139.791H63.5296V127.083Z" fill="white"/>
<path d="M76.2352 127.083H63.5293V139.791H76.2352V127.083Z" fill="white"/>
<path d="M88.9412 127.083H76.2354V139.791H88.9412V127.083Z" fill="white"/>
<path d="M101.647 127.083H88.9414V139.791H101.647V127.083Z" fill="white"/>
<path d="M114.353 127.083H101.647V139.791H114.353V127.083Z" fill="#FDD835"/>
<path d="M127.059 127.083H114.353V139.791H127.059V127.083Z" fill="white"/>
<path d="M139.764 127.083H127.059V139.791H139.764V127.083Z" fill="white"/>
<path d="M152.471 127.083H139.765V139.791H152.471V127.083Z" fill="white"/>
<path d="M165.177 127.083H152.471V139.791H165.177V127.083Z" fill="white"/>
<path d="M177.882 127.083H165.176V139.791H177.882V127.083Z" fill="white"/>
<path d="M190.588 127.083H177.882V139.791H190.588V127.083Z" fill="white"/>
<path d="M203.294 127.083H190.588V139.791H203.294V127.083Z" fill="white"/>
<path d="M216 127.083H203.294V139.791H216V127.083Z" fill="black"/>
<path d="M25.4119 139.792H12.7061V152.5H25.4119V139.792Z" fill="black"/>
<path d="M38.1175 139.792H25.4116V152.5H38.1175V139.792Z" fill="white"/>
<path d="M50.8236 139.792H38.1177V152.5H50.8236V139.792Z" fill="white"/>
<path d="M63.5296 139.792H50.8237V152.5H63.5296V139.792Z" fill="white"/>
<path d="M76.2352 139.792H63.5293V152.5H76.2352V139.792Z" fill="white"/>
<path d="M88.9412 139.792H76.2354V152.5H88.9412V139.792Z" fill="#FDD835"/>
<path d="M101.647 139.792H88.9414V152.5H101.647V139.792Z" fill="#FDD835"/>
<path d="M114.353 139.792H101.647V152.5H114.353V139.792Z" fill="#FDD835"/>
<path d="M127.059 139.792H114.353V152.5H127.059V139.792Z" fill="#FDD835"/>
<path d="M139.764 139.792H127.059V152.5H139.764V139.792Z" fill="#FDD835"/>
<path d="M152.471 139.792H139.765V152.5H152.471V139.792Z" fill="white"/>
<path d="M165.177 139.792H152.471V152.5H165.177V139.792Z" fill="white"/>
<path d="M177.882 139.792H165.176V152.5H177.882V139.792Z" fill="white"/>
<path d="M190.588 139.792H177.882V152.5H190.588V139.792Z" fill="white"/>
<path d="M203.294 139.792H190.588V152.5H203.294V139.792Z" fill="black"/>
<path d="M25.4119 152.5H12.7061V165.208H25.4119V152.5Z" fill="black"/>
<path d="M38.1175 152.5H25.4116V165.208H38.1175V152.5Z" fill="white"/>
<path d="M50.8236 152.5H38.1177V165.208H50.8236V152.5Z" fill="white"/>
<path d="M63.5296 152.5H50.8237V165.208H63.5296V152.5Z" fill="white"/>
<path d="M76.2352 152.5H63.5293V165.208H76.2352V152.5Z" fill="white"/>
<path d="M88.9412 152.5H76.2354V165.208H88.9412V152.5Z" fill="white"/>
<path d="M101.647 152.5H88.9414V165.208H101.647V152.5Z" fill="white"/>
<path d="M114.353 152.5H101.647V165.208H114.353V152.5Z" fill="#FDD835"/>
<path d="M127.059 152.5H114.353V165.208H127.059V152.5Z" fill="white"/>
<path d="M139.764 152.5H127.059V165.208H139.764V152.5Z" fill="#FDD835"/>
<path d="M152.471 152.5H139.765V165.208H152.471V152.5Z" fill="white"/>
<path d="M165.177 152.5H152.471V165.208H165.177V152.5Z" fill="white"/>
<path d="M177.882 152.5H165.176V165.208H177.882V152.5Z" fill="white"/>
<path d="M190.588 152.5H177.882V165.208H190.588V152.5Z" fill="white"/>
<path d="M203.294 152.5H190.588V165.208H203.294V152.5Z" fill="black"/>
<path d="M25.4119 165.208H12.7061V177.916H25.4119V165.208Z" fill="black"/>
<path d="M38.1175 165.208H25.4116V177.916H38.1175V165.208Z" fill="white"/>
<path d="M50.8236 165.208H38.1177V177.916H50.8236V165.208Z" fill="white"/>
<path d="M63.5296 165.208H50.8237V177.916H63.5296V165.208Z" fill="#EEEEEE"/>
<path d="M76.2352 165.208H63.5293V177.916H76.2352V165.208Z" fill="#EEEEEE"/>
<path d="M88.9412 165.208H76.2354V177.916H88.9412V165.208Z" fill="#FDD835"/>
<path d="M101.647 165.208H88.9414V177.916H101.647V165.208Z" fill="#FDD835"/>
<path d="M114.353 165.208H101.647V177.916H114.353V165.208Z" fill="#FDD835"/>
<path d="M127.059 165.208H114.353V177.916H127.059V165.208Z" fill="#FDD835"/>
<path d="M139.764 165.208H127.059V177.916H139.764V165.208Z" fill="#FDD835"/>
<path d="M152.471 165.208H139.765V177.916H152.471V165.208Z" fill="#EEEEEE"/>
<path d="M165.177 165.208H152.471V177.916H165.177V165.208Z" fill="#EEEEEE"/>
<path d="M177.882 165.208H165.176V177.916H177.882V165.208Z" fill="white"/>
<path d="M190.588 165.208H177.882V177.916H190.588V165.208Z" fill="white"/>
<path d="M203.294 165.208H190.588V177.916H203.294V165.208Z" fill="black"/>
<path d="M38.1175 177.917H25.4116V190.625H38.1175V177.917Z" fill="black"/>
<path d="M50.8236 177.917H38.1177V190.625H50.8236V177.917Z" fill="#EEEEEE"/>
<path d="M63.5296 177.917H50.8237V190.625H63.5296V177.917Z" fill="#EEEEEE"/>
<path d="M76.2352 177.917H63.5293V190.625H76.2352V177.917Z" fill="#EEEEEE"/>
<path d="M88.9412 177.917H76.2354V190.625H88.9412V177.917Z" fill="#EEEEEE"/>
<path d="M101.647 177.917H88.9414V190.625H101.647V177.917Z" fill="#EEEEEE"/>
<path d="M114.353 177.917H101.647V190.625H114.353V177.917Z" fill="#EEEEEE"/>
<path d="M127.059 177.917H114.353V190.625H127.059V177.917Z" fill="#EEEEEE"/>
<path d="M139.764 177.917H127.059V190.625H139.764V177.917Z" fill="#EEEEEE"/>
<path d="M152.471 177.917H139.765V190.625H152.471V177.917Z" fill="#EEEEEE"/>
<path d="M165.177 177.917H152.471V190.625H165.177V177.917Z" fill="#EEEEEE"/>
<path d="M177.882 177.917H165.176V190.625H177.882V177.917Z" fill="#EEEEEE"/>
<path d="M190.588 177.917H177.882V190.625H190.588V177.917Z" fill="black"/>
<path d="M38.1175 190.625H25.4116V203.333H38.1175V190.625Z" fill="black"/>
<path d="M50.8236 190.625H38.1177V203.333H50.8236V190.625Z" fill="#EEEEEE"/>
<path d="M63.5296 190.625H50.8237V203.333H63.5296V190.625Z" fill="#EEEEEE"/>
<path d="M76.2352 190.625H63.5293V203.333H76.2352V190.625Z" fill="#EEEEEE"/>
<path d="M88.9412 190.625H76.2354V203.333H88.9412V190.625Z" fill="black"/>
<path d="M101.647 190.625H88.9414V203.333H101.647V190.625Z" fill="black"/>
<path d="M114.353 190.625H101.647V203.333H114.353V190.625Z" fill="black"/>
<path d="M127.059 190.625H114.353V203.333H127.059V190.625Z" fill="black"/>
<path d="M139.764 190.625H127.059V203.333H139.764V190.625Z" fill="black"/>
<path d="M152.471 190.625H139.765V203.333H152.471V190.625Z" fill="#EEEEEE"/>
<path d="M165.177 190.625H152.471V203.333H165.177V190.625Z" fill="#EEEEEE"/>
<path d="M177.882 190.625H165.176V203.333H177.882V190.625Z" fill="#EEEEEE"/>
<path d="M190.588 190.625H177.882V203.333H190.588V190.625Z" fill="black"/>
<path d="M50.8236 203.333H38.1177V216.041H50.8236V203.333Z" fill="black"/>
<path d="M63.5296 203.333H50.8237V216.041H63.5296V203.333Z" fill="black"/>
<path d="M76.2352 203.333H63.5293V216.041H76.2352V203.333Z" fill="black"/>
<path d="M88.9412 203.333H76.2354V216.041H88.9412V203.333Z" fill="#FB8C00"/>
<path d="M101.647 203.333H88.9414V216.041H101.647V203.333Z" fill="#FB8C00"/>
<path d="M114.353 203.333H101.647V216.041H114.353V203.333Z" fill="#FB8C00"/>
<path d="M127.059 203.333H114.353V216.041H127.059V203.333Z" fill="#FB8C00"/>
<path d="M139.764 203.333H127.059V216.041H139.764V203.333Z" fill="#FB8C00"/>
<path d="M152.471 203.333H139.765V216.041H152.471V203.333Z" fill="black"/>
<path d="M165.177 203.333H152.471V216.041H165.177V203.333Z" fill="black"/>
<path d="M177.882 203.333H165.176V216.041H177.882V203.333Z" fill="black"/>
<path d="M25.4119 216.042H12.7061V228.75H25.4119V216.042Z" fill="black"/>
<path d="M38.1175 216.042H25.4116V228.75H38.1175V216.042Z" fill="black"/>
<path d="M50.8236 216.042H38.1177V228.75H50.8236V216.042Z" fill="#FB8C00"/>
<path d="M63.5296 216.042H50.8237V228.75H63.5296V216.042Z" fill="#FB8C00"/>
<path d="M76.2352 216.042H63.5293V228.75H76.2352V216.042Z" fill="#FB8C00"/>
<path d="M88.9412 216.042H76.2354V228.75H88.9412V216.042Z" fill="#FFB74D"/>
<path d="M101.647 216.042H88.9414V228.75H101.647V216.042Z" fill="#FFB74D"/>
<path d="M114.353 216.042H101.647V228.75H114.353V216.042Z" fill="#FB8C00"/>
<path d="M127.059 216.042H114.353V228.75H127.059V216.042Z" fill="#FFB74D"/>
<path d="M139.764 216.042H127.059V228.75H139.764V216.042Z" fill="#FFB74D"/>
<path d="M152.471 216.042H139.765V228.75H152.471V216.042Z" fill="#FB8C00"/>
<path d="M165.177 216.042H152.471V228.75H165.177V216.042Z" fill="#FB8C00"/>
<path d="M177.882 216.042H165.176V228.75H177.882V216.042Z" fill="#FB8C00"/>
<path d="M190.588 216.042H177.882V228.75H190.588V216.042Z" fill="black"/>
<path d="M203.294 216.042H190.588V228.75H203.294V216.042Z" fill="black"/>
<path d="M12.7059 228.75H0V241.458H12.7059V228.75Z" fill="black"/>
<path d="M25.4119 228.75H12.7061V241.458H25.4119V228.75Z" fill="#FB8C00"/>
<path d="M38.1175 228.75H25.4116V241.458H38.1175V228.75Z" fill="#FB8C00"/>
<path d="M50.8236 228.75H38.1177V241.458H50.8236V228.75Z" fill="#FFB74D"/>
<path d="M63.5296 228.75H50.8237V241.458H63.5296V228.75Z" fill="#FFB74D"/>
<path d="M76.2352 228.75H63.5293V241.458H76.2352V228.75Z" fill="#FFB74D"/>
<path d="M88.9412 228.75H76.2354V241.458H88.9412V228.75Z" fill="#FFCC80"/>
<path d="M101.647 228.75H88.9414V241.458H101.647V228.75Z" fill="#FFCC80"/>
<path d="M114.353 228.75H101.647V241.458H114.353V228.75Z" fill="#FB8C00"/>
<path d="M127.059 228.75H114.353V241.458H127.059V228.75Z" fill="#FFCC80"/>
<path d="M139.764 228.75H127.059V241.458H139.764V228.75Z" fill="#FFCC80"/>
<path d="M152.471 228.75H139.765V241.458H152.471V228.75Z" fill="#FFB74D"/>
<path d="M165.177 228.75H152.471V241.458H165.177V228.75Z" fill="#FFB74D"/>
<path d="M177.882 228.75H165.176V241.458H177.882V228.75Z" fill="#FFB74D"/>
<path d="M190.588 228.75H177.882V241.458H190.588V228.75Z" fill="#FB8C00"/>
<path d="M203.294 228.75H190.588V241.458H203.294V228.75Z" fill="#FB8C00"/>
<path d="M216 228.75H203.294V241.458H216V228.75Z" fill="black"/>
<path d="M12.7059 241.458H0V254.166H12.7059V241.458Z" fill="black"/>
<path d="M25.4119 241.458H12.7061V254.166H25.4119V241.458Z" fill="#FFB74D"/>
<path d="M38.1175 241.458H25.4116V254.166H38.1175V241.458Z" fill="#FFB74D"/>
<path d="M50.8236 241.458H38.1177V254.166H50.8236V241.458Z" fill="#FFCC80"/>
<path d="M63.5296 241.458H50.8237V254.166H63.5296V241.458Z" fill="#FFCC80"/>
<path d="M76.2352 241.458H63.5293V254.166H76.2352V241.458Z" fill="#FFCC80"/>
<path d="M88.9412 241.458H76.2354V254.166H88.9412V241.458Z" fill="#FFCC80"/>
<path d="M101.647 241.458H88.9414V254.166H101.647V241.458Z" fill="#FFCC80"/>
<path d="M114.353 241.458H101.647V254.166H114.353V241.458Z" fill="#FB8C00"/>
<path d="M127.059 241.458H114.353V254.166H127.059V241.458Z" fill="#FFCC80"/>
<path d="M139.764 241.458H127.059V254.166H139.764V241.458Z" fill="#FFCC80"/>
<path d="M152.471 241.458H139.765V254.166H152.471V241.458Z" fill="#FFCC80"/>
<path d="M165.177 241.458H152.471V254.166H165.177V241.458Z" fill="#FFCC80"/>
<path d="M177.882 241.458H165.176V254.166H177.882V241.458Z" fill="#FFCC80"/>
<path d="M190.588 241.458H177.882V254.166H190.588V241.458Z" fill="#FFB74D"/>
<path d="M203.294 241.458H190.588V254.166H203.294V241.458Z" fill="#FFB74D"/>
<path d="M216 241.458H203.294V254.166H216V241.458Z" fill="black"/>
<path d="M25.4119 254.167H12.7061V266.875H25.4119V254.167Z" fill="black"/>
<path d="M38.1175 254.167H25.4116V266.875H38.1175V254.167Z" fill="#FFB74D"/>
<path d="M50.8236 254.167H38.1177V266.875H50.8236V254.167Z" fill="#FFB74D"/>
<path d="M63.5296 254.167H50.8237V266.875H63.5296V254.167Z" fill="#FFCC80"/>
<path d="M76.2352 254.167H63.5293V266.875H76.2352V254.167Z" fill="#FFCC80"/>
<path d="M88.9412 254.167H76.2354V266.875H88.9412V254.167Z" fill="#FFCC80"/>
<path d="M101.647 254.167H88.9414V266.875H101.647V254.167Z" fill="#FFCC80"/>
<path d="M114.353 254.167H101.647V266.875H114.353V254.167Z" fill="#FB8C00"/>
<path d="M127.059 254.167H114.353V266.875H127.059V254.167Z" fill="#FFCC80"/>
<path d="M139.764 254.167H127.059V266.875H139.764V254.167Z" fill="#FFCC80"/>
<path d="M152.471 254.167H139.765V266.875H152.471V254.167Z" fill="#FFCC80"/>
<path d="M165.177 254.167H152.471V266.875H165.177V254.167Z" fill="#FFCC80"/>
<path d="M177.882 254.167H165.176V266.875H177.882V254.167Z" fill="#FFB74D"/>
<path d="M190.588 254.167H177.882V266.875H190.588V254.167Z" fill="#FFB74D"/>
<path d="M203.294 254.167H190.588V266.875H203.294V254.167Z" fill="black"/>
<path d="M38.1175 266.875H25.4116V279.583H38.1175V266.875Z" fill="black"/>
<path d="M50.8236 266.875H38.1177V279.583H50.8236V266.875Z" fill="#FFB74D"/>
<path d="M63.5296 266.875H50.8237V279.583H63.5296V266.875Z" fill="#FFB74D"/>
<path d="M76.2352 266.875H63.5293V279.583H76.2352V266.875Z" fill="#FFB74D"/>
<path d="M88.9412 266.875H76.2354V279.583H88.9412V266.875Z" fill="#FFB74D"/>
<path d="M101.647 266.875H88.9414V279.583H101.647V266.875Z" fill="#FFB74D"/>
<path d="M114.353 266.875H101.647V279.583H114.353V266.875Z" fill="#FB8C00"/>
<path d="M127.059 266.875H114.353V279.583H127.059V266.875Z" fill="#FFB74D"/>
<path d="M139.764 266.875H127.059V279.583H139.764V266.875Z" fill="#FFB74D"/>
<path d="M152.471 266.875H139.765V279.583H152.471V266.875Z" fill="#FFB74D"/>
<path d="M165.177 266.875H152.471V279.583H165.177V266.875Z" fill="#FFB74D"/>
<path d="M177.882 266.875H165.176V279.583H177.882V266.875Z" fill="#FFB74D"/>
<path d="M190.588 266.875H177.882V279.583H190.588V266.875Z" fill="black"/>
<path d="M50.8236 279.583H38.1177V292.291H50.8236V279.583Z" fill="black"/>
<path d="M63.5296 279.583H50.8237V292.291H63.5296V279.583Z" fill="black"/>
<path d="M76.2352 279.583H63.5293V292.291H76.2352V279.583Z" fill="#FFB74D"/>
<path d="M88.9412 279.583H76.2354V292.291H88.9412V279.583Z" fill="#FFB74D"/>
<path d="M101.647 279.583H88.9414V292.291H101.647V279.583Z" fill="#FFB74D"/>
<path d="M114.353 279.583H101.647V292.291H114.353V279.583Z" fill="#FB8C00"/>
<path d="M127.059 279.583H114.353V292.291H127.059V279.583Z" fill="#FFB74D"/>
<path d="M139.764 279.583H127.059V292.291H139.764V279.583Z" fill="#FFB74D"/>
<path d="M152.471 279.583H139.765V292.291H152.471V279.583Z" fill="#FFB74D"/>
<path d="M165.177 279.583H152.471V292.291H165.177V279.583Z" fill="black"/>
<path d="M177.882 279.583H165.176V292.291H177.882V279.583Z" fill="black"/>
<path d="M76.2352 292.292H63.5293V305H76.2352V292.292Z" fill="black"/>
<path d="M88.9412 292.292H76.2354V305H88.9412V292.292Z" fill="black"/>
<path d="M101.647 292.292H88.9414V305H101.647V292.292Z" fill="black"/>
<path d="M114.353 292.292H101.647V305H114.353V292.292Z" fill="black"/>
<path d="M127.059 292.292H114.353V305H127.059V292.292Z" fill="black"/>
<path d="M139.764 292.292H127.059V305H139.764V292.292Z" fill="black"/>
<path d="M152.471 292.292H139.765V305H152.471V292.292Z" fill="black"/>
</g>
<g clip-path="url(#clip1_14_41137)">
<path d="M51.647 45H41.7646V54.8889H51.647V45Z" fill="black"/>
<path d="M61.5293 45H51.647V54.8889H61.5293V45Z" fill="black"/>
<path d="M41.7647 54.8887H31.8823V64.7776H41.7647V54.8887Z" fill="black"/>
<path d="M51.647 54.8887H41.7646V64.7776H51.647V54.8887Z" fill="white"/>
<path d="M61.5293 54.8887H51.647V64.7776H61.5293V54.8887Z" fill="#E0E0E0"/>
<path d="M71.4116 54.8887H61.5293V64.7776H71.4116V54.8887Z" fill="black"/>
<path d="M41.7647 64.7773H31.8823V74.6662H41.7647V64.7773Z" fill="black"/>
<path d="M51.647 64.7773H41.7646V74.6662H51.647V64.7773Z" fill="white"/>
<path d="M61.5293 64.7773H51.647V74.6662H61.5293V64.7773Z" fill="#E0E0E0"/>
<path d="M71.4116 64.7773H61.5293V74.6662H71.4116V64.7773Z" fill="black"/>
<path d="M91.1763 64.7773H81.2939V74.6662H91.1763V64.7773Z" fill="black"/>
<path d="M101.059 64.7773H91.1763V74.6662H101.059V64.7773Z" fill="black"/>
<path d="M110.941 64.7773H101.059V74.6662H110.941V64.7773Z" fill="black"/>
<path d="M120.824 64.7773H110.941V74.6662H120.824V64.7773Z" fill="black"/>
<path d="M130.706 64.7773H120.824V74.6662H130.706V64.7773Z" fill="black"/>
<path d="M41.7647 74.667H31.8823V84.5559H41.7647V74.667Z" fill="black"/>
<path d="M51.647 74.667H41.7646V84.5559H51.647V74.667Z" fill="white"/>
<path d="M61.5293 74.667H51.647V84.5559H61.5293V74.667Z" fill="#E0E0E0"/>
<path d="M71.4116 74.667H61.5293V84.5559H71.4116V74.667Z" fill="black"/>
<path d="M81.294 74.667H71.4116V84.5559H81.294V74.667Z" fill="black"/>
<path d="M91.1763 74.667H81.2939V84.5559H91.1763V74.667Z" fill="#8D6E63"/>
<path d="M101.059 74.667H91.1763V84.5559H101.059V74.667Z" fill="#8D6E63"/>
<path d="M110.941 74.667H101.059V84.5559H110.941V74.667Z" fill="#8D6E63"/>
<path d="M120.824 74.667H110.941V84.5559H120.824V74.667Z" fill="#8D6E63"/>
<path d="M130.706 74.667H120.824V84.5559H130.706V74.667Z" fill="#8D6E63"/>
<path d="M140.588 74.667H130.706V84.5559H140.588V74.667Z" fill="black"/>
<path d="M150.471 74.667H140.588V84.5559H150.471V74.667Z" fill="black"/>
<path d="M41.7647 84.5557H31.8823V94.4446H41.7647V84.5557Z" fill="black"/>
<path d="M51.647 84.5557H41.7646V94.4446H51.647V84.5557Z" fill="white"/>
<path d="M61.5293 84.5557H51.647V94.4446H61.5293V84.5557Z" fill="#E0E0E0"/>
<path d="M71.4116 84.5557H61.5293V94.4446H71.4116V84.5557Z" fill="black"/>
<path d="M81.294 84.5557H71.4116V94.4446H81.294V84.5557Z" fill="#8D6E63"/>
<path d="M91.1763 84.5557H81.2939V94.4446H91.1763V84.5557Z" fill="#8D6E63"/>
<path d="M101.059 84.5557H91.1763V94.4446H101.059V84.5557Z" fill="#8D6E63"/>
<path d="M110.941 84.5557H101.059V94.4446H110.941V84.5557Z" fill="#8D6E63"/>
<path d="M120.824 84.5557H110.941V94.4446H120.824V84.5557Z" fill="#8D6E63"/>
<path d="M130.706 84.5557H120.824V94.4446H130.706V84.5557Z" fill="#8D6E63"/>
<path d="M140.588 84.5557H130.706V94.4446H140.588V84.5557Z" fill="#8D6E63"/>
<path d="M150.471 84.5557H140.588V94.4446H150.471V84.5557Z" fill="#8D6E63"/>
<path d="M160.353 84.5557H150.471V94.4446H160.353V84.5557Z" fill="black"/>
<path d="M41.7647 94.4443H31.8823V104.333H41.7647V94.4443Z" fill="black"/>
<path d="M51.647 94.4443H41.7646V104.333H51.647V94.4443Z" fill="white"/>
<path d="M61.5293 94.4443H51.647V104.333H61.5293V94.4443Z" fill="#E0E0E0"/>
<path d="M71.4116 94.4443H61.5293V104.333H71.4116V94.4443Z" fill="black"/>
<path d="M81.294 94.4443H71.4116V104.333H81.294V94.4443Z" fill="#8D6E63"/>
<path d="M91.1763 94.4443H81.2939V104.333H91.1763V94.4443Z" fill="#8D6E63"/>
<path d="M101.059 94.4443H91.1763V104.333H101.059V94.4443Z" fill="#8D6E63"/>
<path d="M110.941 94.4443H101.059V104.333H110.941V94.4443Z" fill="#8D6E63"/>
<path d="M120.824 94.4443H110.941V104.333H120.824V94.4443Z" fill="#8D6E63"/>
<path d="M130.706 94.4443H120.824V104.333H130.706V94.4443Z" fill="#8D6E63"/>
<path d="M140.588 94.4443H130.706V104.333H140.588V94.4443Z" fill="#8D6E63"/>
<path d="M150.471 94.4443H140.588V104.333H150.471V94.4443Z" fill="#BCAAA4"/>
<path d="M160.353 94.4443H150.471V104.333H160.353V94.4443Z" fill="black"/>
<path d="M41.7647 104.333H31.8823V114.222H41.7647V104.333Z" fill="black"/>
<path d="M51.647 104.333H41.7646V114.222H51.647V104.333Z" fill="white"/>
<path d="M61.5293 104.333H51.647V114.222H61.5293V104.333Z" fill="#E0E0E0"/>
<path d="M71.4116 104.333H61.5293V114.222H71.4116V104.333Z" fill="black"/>
<path d="M81.294 104.333H71.4116V114.222H81.294V104.333Z" fill="#BCAAA4"/>
<path d="M91.1763 104.333H81.2939V114.222H91.1763V104.333Z" fill="#BCAAA4"/>
<path d="M101.059 104.333H91.1763V114.222H101.059V104.333Z" fill="#8D6E63"/>
<path d="M110.941 104.333H101.059V114.222H110.941V104.333Z" fill="#8D6E63"/>
<path d="M120.824 104.333H110.941V114.222H120.824V104.333Z" fill="#8D6E63"/>
<path d="M130.706 104.333H120.824V114.222H130.706V104.333Z" fill="#BCAAA4"/>
<path d="M140.588 104.333H130.706V114.222H140.588V104.333Z" fill="#BCAAA4"/>
<path d="M150.471 104.333H140.588V114.222H150.471V104.333Z" fill="#6D4C41"/>
<path d="M160.353 104.333H150.471V114.222H160.353V104.333Z" fill="black"/>
<path d="M41.7647 114.223H31.8823V124.112H41.7647V114.223Z" fill="black"/>
<path d="M51.647 114.223H41.7646V124.112H51.647V114.223Z" fill="white"/>
<path d="M61.5293 114.223H51.647V124.112H61.5293V114.223Z" fill="#E0E0E0"/>
<path d="M71.4116 114.223H61.5293V124.112H71.4116V114.223Z" fill="black"/>
<path d="M81.294 114.223H71.4116V124.112H81.294V114.223Z" fill="#6D4C41"/>
<path d="M91.1763 114.223H81.2939V124.112H91.1763V114.223Z" fill="#6D4C41"/>
<path d="M101.059 114.223H91.1763V124.112H101.059V114.223Z" fill="black"/>
<path d="M110.941 114.223H101.059V124.112H110.941V114.223Z" fill="#6D4C41"/>
<path d="M120.824 114.223H110.941V124.112H120.824V114.223Z" fill="black"/>
<path d="M130.706 114.223H120.824V124.112H130.706V114.223Z" fill="#6D4C41"/>
<path d="M140.588 114.223H130.706V124.112H140.588V114.223Z" fill="#6D4C41"/>
<path d="M150.471 114.223H140.588V124.112H150.471V114.223Z" fill="#6D4C41"/>
<path d="M160.353 114.223H150.471V124.112H160.353V114.223Z" fill="black"/>
<path d="M41.7647 124.111H31.8823V134H41.7647V124.111Z" fill="black"/>
<path d="M51.647 124.111H41.7646V134H51.647V124.111Z" fill="black"/>
<path d="M61.5293 124.111H51.647V134H61.5293V124.111Z" fill="black"/>
<path d="M71.4116 124.111H61.5293V134H71.4116V124.111Z" fill="black"/>
<path d="M81.294 124.111H71.4116V134H81.294V124.111Z" fill="black"/>
<path d="M91.1763 124.111H81.2939V134H91.1763V124.111Z" fill="black"/>
<path d="M101.059 124.111H91.1763V134H101.059V124.111Z" fill="#E0E0E0"/>
<path d="M110.941 124.111H101.059V134H110.941V124.111Z" fill="#0277BD"/>
<path d="M120.824 124.111H110.941V134H120.824V124.111Z" fill="#E0E0E0"/>
<path d="M130.706 124.111H120.824V134H130.706V124.111Z" fill="black"/>
<path d="M140.588 124.111H130.706V134H140.588V124.111Z" fill="black"/>
<path d="M150.471 124.111H140.588V134H150.471V124.111Z" fill="black"/>
<path d="M31.8824 134H22V143.889H31.8824V134Z" fill="black"/>
<path d="M41.7647 134H31.8823V143.889H41.7647V134Z" fill="#0277BD"/>
<path d="M51.647 134H41.7646V143.889H51.647V134Z" fill="#0277BD"/>
<path d="M61.5293 134H51.647V143.889H61.5293V134Z" fill="#0277BD"/>
<path d="M71.4116 134H61.5293V143.889H71.4116V134Z" fill="black"/>
<path d="M81.294 134H71.4116V143.889H81.294V134Z" fill="#FFEDB5"/>
<path d="M91.1763 134H81.2939V143.889H91.1763V134Z" fill="black"/>
<path d="M101.059 134H91.1763V143.889H101.059V134Z" fill="#FFEDB5"/>
<path d="M110.941 134H101.059V143.889H110.941V134Z" fill="#FFEDB5"/>
<path d="M120.824 134H110.941V143.889H120.824V134Z" fill="#FFEDB5"/>
<path d="M130.706 134H120.824V143.889H130.706V134Z" fill="black"/>
<path d="M140.588 134H130.706V143.889H140.588V134Z" fill="#FFEDB5"/>
<path d="M150.471 134H140.588V143.889H150.471V134Z" fill="black"/>
<path d="M41.7647 143.889H31.8823V153.778H41.7647V143.889Z" fill="black"/>
<path d="M51.647 143.889H41.7646V153.778H51.647V143.889Z" fill="black"/>
<path d="M61.5293 143.889H51.647V153.778H61.5293V143.889Z" fill="black"/>
<path d="M71.4116 143.889H61.5293V153.778H71.4116V143.889Z" fill="black"/>
<path d="M81.294 143.889H71.4116V153.778H81.294V143.889Z" fill="black"/>
<path d="M91.1763 143.889H81.2939V153.778H91.1763V143.889Z" fill="#FFEDB5"/>
<path d="M101.059 143.889H91.1763V153.778H101.059V143.889Z" fill="#FFEDB5"/>
<path d="M110.941 143.889H101.059V153.778H110.941V143.889Z" fill="#FFEDB5"/>
<path d="M120.824 143.889H110.941V153.778H120.824V143.889Z" fill="#FFEDB5"/>
<path d="M130.706 143.889H120.824V153.778H130.706V143.889Z" fill="#FFEDB5"/>
<path d="M140.588 143.889H130.706V153.778H140.588V143.889Z" fill="black"/>
<path d="M150.471 143.889H140.588V153.778H150.471V143.889Z" fill="black"/>
<path d="M160.353 143.889H150.471V153.778H160.353V143.889Z" fill="black"/>
<path d="M170.235 143.889H160.353V153.778H170.235V143.889Z" fill="black"/>
<path d="M180.118 143.889H170.235V153.778H180.118V143.889Z" fill="black"/>
<path d="M190 143.889H180.118V153.778H190V143.889Z" fill="black"/>
<path d="M41.7647 153.777H31.8823V163.666H41.7647V153.777Z" fill="black"/>
<path d="M51.647 153.777H41.7646V163.666H51.647V153.777Z" fill="#E0E0E0"/>
<path d="M61.5293 153.777H51.647V163.666H61.5293V153.777Z" fill="#E0E0E0"/>
<path d="M71.4116 153.777H61.5293V163.666H71.4116V153.777Z" fill="black"/>
<path d="M81.294 153.777H71.4116V163.666H81.294V153.777Z" fill="white"/>
<path d="M91.1763 153.777H81.2939V163.666H91.1763V153.777Z" fill="black"/>
<path d="M101.059 153.777H91.1763V163.666H101.059V153.777Z" fill="black"/>
<path d="M110.941 153.777H101.059V163.666H110.941V153.777Z" fill="black"/>
<path d="M120.824 153.777H110.941V163.666H120.824V153.777Z" fill="black"/>
<path d="M130.706 153.777H120.824V163.666H130.706V153.777Z" fill="black"/>
<path d="M140.588 153.777H130.706V163.666H140.588V153.777Z" fill="black"/>
<path d="M150.471 153.777H140.588V163.666H150.471V153.777Z" fill="white"/>
<path d="M160.353 153.777H150.471V163.666H160.353V153.777Z" fill="white"/>
<path d="M170.235 153.777H160.353V163.666H170.235V153.777Z" fill="#E0E0E0"/>
<path d="M180.118 153.777H170.235V163.666H180.118V153.777Z" fill="#E0E0E0"/>
<path d="M190 153.777H180.118V163.666H190V153.777Z" fill="black"/>
<path d="M41.7647 163.667H31.8823V173.556H41.7647V163.667Z" fill="black"/>
<path d="M51.647 163.667H41.7646V173.556H51.647V163.667Z" fill="#E0E0E0"/>
<path d="M61.5293 163.667H51.647V173.556H61.5293V163.667Z" fill="#BDBDBD"/>
<path d="M71.4116 163.667H61.5293V173.556H71.4116V163.667Z" fill="black"/>
<path d="M81.294 163.667H71.4116V173.556H81.294V163.667Z" fill="white"/>
<path d="M91.1763 163.667H81.2939V173.556H91.1763V163.667Z" fill="white"/>
<path d="M101.059 163.667H91.1763V173.556H101.059V163.667Z" fill="#E0E0E0"/>
<path d="M110.941 163.667H101.059V173.556H110.941V163.667Z" fill="white"/>
<path d="M120.824 163.667H110.941V173.556H120.824V163.667Z" fill="#E0E0E0"/>
<path d="M130.706 163.667H120.824V173.556H130.706V163.667Z" fill="#E0E0E0"/>
<path d="M140.588 163.667H130.706V173.556H140.588V163.667Z" fill="black"/>
<path d="M150.471 163.667H140.588V173.556H150.471V163.667Z" fill="white"/>
<path d="M160.353 163.667H150.471V173.556H160.353V163.667Z" fill="white"/>
<path d="M170.235 163.667H160.353V173.556H170.235V163.667Z" fill="#E0E0E0"/>
<path d="M180.118 163.667H170.235V173.556H180.118V163.667Z" fill="#E0E0E0"/>
<path d="M190 163.667H180.118V173.556H190V163.667Z" fill="black"/>
<path d="M51.647 173.556H41.7646V183.445H51.647V173.556Z" fill="black"/>
<path d="M61.5293 173.556H51.647V183.445H61.5293V173.556Z" fill="black"/>
<path d="M71.4116 173.556H61.5293V183.445H71.4116V173.556Z" fill="black"/>
<path d="M81.294 173.556H71.4116V183.445H81.294V173.556Z" fill="white"/>
<path d="M91.1763 173.556H81.2939V183.445H91.1763V173.556Z" fill="white"/>
<path d="M101.059 173.556H91.1763V183.445H101.059V173.556Z" fill="#E0E0E0"/>
<path d="M110.941 173.556H101.059V183.445H110.941V173.556Z" fill="white"/>
<path d="M120.824 173.556H110.941V183.445H120.824V173.556Z" fill="#E0E0E0"/>
<path d="M130.706 173.556H120.824V183.445H130.706V173.556Z" fill="#E0E0E0"/>
<path d="M140.588 173.556H130.706V183.445H140.588V173.556Z" fill="black"/>
<path d="M150.471 173.556H140.588V183.445H150.471V173.556Z" fill="white"/>
<path d="M160.353 173.556H150.471V183.445H160.353V173.556Z" fill="white"/>
<path d="M170.235 173.556H160.353V183.445H170.235V173.556Z" fill="#E0E0E0"/>
<path d="M180.118 173.556H170.235V183.445H180.118V173.556Z" fill="#E0E0E0"/>
<path d="M190 173.556H180.118V183.445H190V173.556Z" fill="black"/>
<path d="M61.5293 183.444H51.647V193.333H61.5293V183.444Z" fill="black"/>
<path d="M71.4116 183.444H61.5293V193.333H71.4116V183.444Z" fill="#0277BD"/>
<path d="M81.294 183.444H71.4116V193.333H81.294V183.444Z" fill="black"/>
<path d="M91.1763 183.444H81.2939V193.333H91.1763V183.444Z" fill="black"/>
<path d="M101.059 183.444H91.1763V193.333H101.059V183.444Z" fill="black"/>
<path d="M110.941 183.444H101.059V193.333H110.941V183.444Z" fill="black"/>
<path d="M120.824 183.444H110.941V193.333H120.824V183.444Z" fill="black"/>
<path d="M130.706 183.444H120.824V193.333H130.706V183.444Z" fill="black"/>
<path d="M140.588 183.444H130.706V193.333H140.588V183.444Z" fill="black"/>
<path d="M150.471 183.444H140.588V193.333H150.471V183.444Z" fill="black"/>
<path d="M160.353 183.444H150.471V193.333H160.353V183.444Z" fill="white"/>
<path d="M170.235 183.444H160.353V193.333H170.235V183.444Z" fill="#E0E0E0"/>
<path d="M180.118 183.444H170.235V193.333H180.118V183.444Z" fill="black"/>
<path d="M61.5293 193.333H51.647V203.222H61.5293V193.333Z" fill="black"/>
<path d="M71.4116 193.333H61.5293V203.222H71.4116V193.333Z" fill="#0277BD"/>
<path d="M81.294 193.333H71.4116V203.222H81.294V193.333Z" fill="black"/>
<path d="M160.353 193.333H150.471V203.222H160.353V193.333Z" fill="black"/>
<path d="M170.235 193.333H160.353V203.222H170.235V193.333Z" fill="black"/>
<path d="M61.5293 203.223H51.647V213.112H61.5293V203.223Z" fill="black"/>
</g>
<defs>
<clipPath id="clip0_14_41137">
<rect width="216" height="305" fill="white"/>
</clipPath>
<clipPath id="clip1_14_41137">
<rect width="168" height="178" fill="white" transform="translate(22 45)"/>
</clipPath>
</defs>
</svg>
